<?xml version="1.0" standalone="no"?>
<!DOCTYPE svg PUBLIC "-//W3C//DTD SVG 20010904//EN"
 "http://www.w3.org/TR/2001/REC-SVG-20010904/DTD/svg10.dtd">
<svg version="1.0" xmlns="http://www.w3.org/2000/svg"
 width="1024.000000pt" height="1024.000000pt" viewBox="0 0 1024.000000 1024.000000"
 preserveAspectRatio="xMidYMid meet">
<metadata>
Created by potrace 1.14, written by Peter Selinger 2001-2017
</metadata>
<g transform="translate(0.000000,1024.000000) scale(0.100000,-0.100000)"
fill="#000000" stroke="none">
<path d="M3136 9855 c2 -31 -1 -35 -17 -30 -21 7 -27 -10 -6 -18 7 -3 5 -6 -5
-6 -10 -1 -18 -8 -18 -16 0 -9 -11 -20 -24 -24 -15 -6 -25 -21 -30 -43 -5 -26
-9 -30 -16 -18 -8 13 -10 12 -10 -2 0 -17 29 -18 470 -18 l470 0 0 -420 0
-420 143 0 142 1 19 41 c10 22 27 43 38 46 10 2 21 16 24 31 4 14 19 39 35 54
16 16 31 44 35 64 4 24 14 37 30 43 14 6 24 18 24 29 0 11 7 26 15 35 8 8 15
17 15 20 0 3 21 36 46 73 25 37 50 78 55 90 5 13 15 23 24 23 9 0 15 9 15 21
0 11 14 34 30 51 17 16 30 31 30 34 0 4 27 38 50 63 8 9 21 29 27 44 7 15 18
26 25 25 8 -2 13 7 13 22 l0 25 303 3 302 2 0 -30 c0 -23 4 -30 20 -30 14 0
20 -7 20 -24 0 -15 12 -34 30 -49 17 -14 30 -32 30 -41 0 -8 11 -23 23 -33 13
-10 30 -29 37 -42 7 -14 23 -35 36 -48 13 -13 24 -29 24 -36 0 -7 10 -24 23
-37 12 -14 30 -42 41 -62 10 -20 25 -39 32 -42 8 -3 11 -12 8 -19 -3 -8 2 -17
10 -20 9 -4 16 -13 16 -21 0 -8 10 -25 23 -38 13 -13 29 -42 37 -65 7 -25 20
-43 31 -46 11 -3 19 -14 19 -26 0 -12 5 -21 12 -21 6 0 9 -3 5 -6 -7 -7 29
-44 43 -44 6 0 13 -13 17 -30 l6 -30 128 0 129 0 0 235 c0 209 2 235 16 235
10 0 14 6 11 14 -3 8 9 26 29 42 19 16 34 37 34 47 0 11 6 17 18 15 13 -2 18
5 20 30 3 24 8 32 23 32 15 0 19 6 17 23 l-3 22 178 3 177 2 0 -26 c0 -18 6
-28 21 -31 14 -4 19 -11 16 -25 -4 -14 2 -22 19 -28 16 -6 24 -17 24 -33 0
-16 9 -26 31 -34 25 -10 29 -16 24 -33 -4 -11 -2 -27 4 -34 8 -9 11 -63 9
-157 -3 -140 -4 -144 -25 -147 -14 -2 -23 -11 -25 -25 -2 -12 -8 -22 -13 -22
-6 0 -21 -10 -35 -22 -13 -13 -28 -23 -32 -23 -5 0 -6 -4 -3 -10 3 -5 2 -10
-4 -10 -5 0 -12 6 -14 13 -3 6 -6 -3 -6 -20 l-1 -33 478 2 c262 1 446 3 409 5
-58 3 -68 7 -65 21 2 9 7 15 12 14 5 -2 13 2 18 10 6 9 7 6 3 -9 -5 -19 -2
-23 17 -23 35 0 49 12 32 28 -11 10 -14 10 -15 0 -1 -20 -18 24 -18 49 -1 16
3 21 14 17 10 -4 15 0 15 14 0 11 7 22 15 26 8 3 12 12 9 21 -3 8 -1 15 5 15
6 0 11 -4 11 -9 0 -5 9 -11 21 -14 20 -5 20 -5 4 13 -16 17 -16 21 -1 42 9 13
21 24 26 24 6 1 12 2 15 3 3 0 1 10 -5 21 -8 15 -8 20 1 18 7 -2 24 15 40 37
30 43 71 58 61 22 -3 -14 -1 -18 6 -13 19 11 14 37 -8 43 -11 3 -20 10 -20 17
0 28 14 56 26 56 17 0 18 22 3 37 -6 6 -9 17 -6 25 3 8 9 2 18 -16 l14 -29 5
24 c4 17 14 25 33 27 24 3 27 7 27 43 l0 39 50 0 50 0 0 40 c0 28 4 40 14 40
10 0 16 13 19 38 l4 37 1 -37 c2 -31 6 -38 22 -38 17 0 20 -7 20 -40 0 -22 5
-40 11 -40 7 0 10 -54 7 -175 -2 -96 0 -175 5 -175 6 0 12 290 9 470 -1 47 1
58 7 40 5 -14 6 -190 3 -392 l-5 -368 429 -2 c236 -2 684 -2 997 0 l567 2 -2
411 -3 411 -990 0 c-1524 -1 -1551 -2 -1536 -11 11 -7 11 -9 0 -13 -8 -3 11
-6 40 -7 71 -2 80 -11 13 -11 -30 0 -52 -5 -52 -11 0 -5 4 -7 10 -4 5 3 7 0 4
-8 -3 -8 2 -20 11 -27 19 -16 19 -30 0 -30 -8 0 -15 7 -15 16 0 8 -4 12 -10 9
-6 -3 -10 1 -10 9 0 9 -5 16 -10 16 -6 0 -8 11 -4 26 5 18 3 25 -3 21 -6 -4
-13 2 -16 13 -5 19 -14 20 -221 20 l-216 0 0 41 c0 23 -7 47 -15 55 -8 9 -15
24 -15 35 0 11 -7 19 -16 19 -8 0 -12 5 -9 10 3 6 1 10 -4 10 -6 0 -11 11 -11
25 l0 25 -1948 0 -1947 0 1 -35z m2992 -182 c-2 -20 -8 -27 -20 -25 -14 2 -18
-4 -18 -28 0 -16 -5 -30 -11 -30 -13 0 -39 -25 -39 -38 0 -5 -11 -18 -25 -28
-14 -10 -25 -26 -25 -35 0 -10 -11 -20 -26 -23 -17 -5 -24 -12 -20 -21 4 -11
-2 -15 -24 -15 -17 0 -30 5 -30 11 0 6 -6 17 -14 25 -8 8 -19 14 -25 14 -6 0
-11 4 -11 10 0 5 -9 18 -21 28 -11 11 -19 28 -17 37 2 11 -4 19 -14 20 -25 4
-46 28 -50 56 -2 14 -10 24 -20 24 -22 0 -32 11 -25 27 3 10 56 14 221 16
l217 3 -3 -28z m-1790 -90 l-3 -98 -97 -3 -98 -3 0 95 0 95 63 4 c34 2 79 4
100 5 l38 2 -3 -97z m3305 60 c-7 -2 -21 -2 -30 0 -10 3 -4 5 12 5 17 0 24 -2
18 -5z m340 0 c-13 -2 -33 -2 -45 0 -13 2 -3 4 22 4 25 0 35 -2 23 -4z m-80
-20 c-13 -2 -33 -2 -45 0 -13 2 -3 4 22 4 25 0 35 -2 23 -4z m367 -113 l0 -40
-40 0 -40 0 0 40 0 40 40 0 40 0 0 -40z m268 30 c22 0 22 -2 22 -119 l0 -119
-36 -7 c-20 -3 -38 -4 -41 -1 -3 3 -7 62 -9 132 l-5 126 23 -6 c13 -3 33 -6
46 -6z m392 -115 l0 -125 -49 0 -50 0 -3 88 c-2 48 -1 104 1 125 l3 37 49 0
49 0 0 -125z m329 0 l0 -125 -43 0 -43 0 -5 101 c-7 143 -5 149 48 149 l43 0
0 -125z m691 82 l0 -43 -305 0 -305 0 0 43 0 43 305 0 305 0 0 -43z m-2295 10
c6 -5 2 -6 -10 -3 -16 5 -16 3 5 -13 14 -11 22 -22 19 -25 -3 -4 -18 3 -32 14
-22 17 -24 24 -14 35 6 7 14 10 17 7 3 -4 10 -11 15 -15z m59 -115 c-6 -8 -43
24 -48 41 -3 14 2 12 23 -10 15 -15 27 -29 25 -31z m-376 -29 l3 -53 58 0 c57
0 59 -1 65 -31 12 -61 15 -59 -104 -59 l-110 0 0 99 0 98 43 -1 42 -1 3 -52z
m392 -3 c0 -11 -4 -20 -9 -20 -5 0 -7 9 -4 20 3 11 7 20 9 20 2 0 4 -9 4 -20z
m540 -30 l0 -40 -40 0 c-39 0 -40 1 -40 34 0 36 9 42 58 45 19 1 22 -4 22 -39z
m1680 0 l0 -40 -303 0 -303 0 -2 40 -3 40 306 0 305 0 0 -40z m-2185 21 c3 -5
2 -12 -3 -15 -5 -3 -9 1 -9 9 0 17 3 19 12 6z m1157 -173 c3 -24 3 -46 1 -50
-2 -5 -24 -8 -49 -8 l-44 0 0 50 0 50 44 0 44 0 4 -42z m338 -8 l0 -50 -45 0
-45 0 0 43 c0 24 3 47 7 50 3 4 24 7 45 7 l38 0 0 -50z m-710 -5 l0 -45 -40 0
-40 0 0 45 0 45 40 0 40 0 0 -45z m1400 5 l0 -40 -295 0 c-162 0 -298 -1 -302
-2 -5 -2 -9 16 -11 40 l-3 42 305 0 306 0 0 -40z m-1680 -15 c0 -28 -4 -35
-22 -39 -49 -10 -58 -5 -58 36 0 38 0 38 40 38 39 0 40 -1 40 -35z m658 -143
l3 -52 -50 0 -51 0 0 49 c0 47 2 50 28 53 64 7 67 5 70 -50z m332 -2 l0 -50
-45 0 -45 0 0 43 c0 24 3 47 7 50 3 4 24 7 45 7 l38 0 0 -50z m690 -10 l0 -40
-302 2 -303 3 -3 38 -3 37 305 0 306 0 0 -40z m-1680 -20 l0 -40 -40 0 -40 0
0 40 0 40 40 0 40 0 0 -40z"/>
<path d="M5840 9601 c0 -13 8 -21 23 -23 13 -2 22 -10 22 -20 0 -10 7 -25 16
-33 15 -15 18 -15 32 0 15 15 15 18 1 41 -9 13 -21 24 -27 24 -6 0 -7 3 -4 7
4 3 18 -4 32 -17 l26 -24 6 22 c3 14 13 22 26 22 11 0 17 3 14 7 -4 4 -43 8
-87 10 -74 4 -80 3 -80 -16z"/>
<path d="M64 9661 c-2 -2 -4 -188 -4 -413 l0 -408 1000 0 1000 0 1 33 c0 26 2
28 9 12 7 -18 9 -18 19 9 7 16 10 35 7 41 -6 18 11 568 19 588 13 32 25 17 25
-33 0 -58 17 -68 22 -12 3 33 6 37 34 40 28 3 32 0 38 -30 4 -20 2 -34 -4 -36
-13 -5 19 -31 38 -32 6 0 12 5 12 10 0 6 -7 10 -15 10 -11 0 -15 11 -15 40 0
39 1 40 35 40 25 0 35 -4 35 -16 0 -9 6 -14 13 -12 6 3 14 27 17 54 5 49 5 49
39 47 22 -1 29 2 21 7 -9 6 1 10 30 13 30 2 17 5 -40 7 l-85 3 119 8 c73 6
124 5 135 -1 9 -5 11 -10 4 -10 -9 0 -10 -7 -3 -26 13 -34 13 -37 -5 -30 -15
5 -21 -5 -9 -17 11 -11 34 5 34 24 0 11 7 22 15 25 9 4 15 19 15 35 0 24 -4
29 -22 28 -17 -1 -19 -2 -5 -6 9 -2 17 -13 17 -23 0 -10 -8 -21 -17 -25 -15
-5 -16 -4 -5 6 16 17 15 29 -3 29 -8 0 -15 3 -15 8 0 4 -114 9 -253 11 -343 5
-2248 7 -2253 2z m2379 -18 c-24 -2 -62 -2 -85 0 -24 2 -5 4 42 4 47 0 66 -2
43 -4z m-371 -372 c1 -188 -2 -344 -5 -348 -4 -3 -7 153 -7 347 0 194 3 351 6
348 3 -4 6 -160 6 -347z m161 342 c-7 -2 -19 -2 -25 0 -7 3 -2 5 12 5 14 0 19
-2 13 -5z m-473 -106 l0 -42 -764 0 -765 0 -6 33 c-3 18 -3 37 0 42 4 6 281
10 771 10 l764 0 0 -43z m248 6 c-3 -36 -5 -38 -40 -41 l-38 -3 0 40 0 41 41
0 40 0 -3 -37z m-248 -173 l0 -40 -765 0 -765 0 0 40 0 40 765 0 765 0 0 -40z
m250 -1 c0 -39 0 -39 -40 -39 -40 0 -40 0 -40 39 0 38 0 38 40 38 40 0 40 0
40 -38z m-250 -159 l0 -40 -768 0 -769 0 3 28 c1 15 2 33 3 40 1 9 161 12 766
12 l765 0 0 -40z m250 -19 l0 -39 -40 1 c-39 2 -40 3 -40 40 0 37 0 37 40 37
40 0 40 0 40 -39z m-250 -151 l0 -40 -765 0 -765 0 0 40 0 40 765 0 765 0 0
-40z m250 -20 l0 -40 -40 0 -40 0 0 40 0 40 40 0 40 0 0 -40z"/>
<path d="M2500 9528 c-12 -22 -12 -22 6 -6 10 10 15 20 12 24 -4 3 -12 -5 -18
-18z"/>
<path d="M2535 9500 c3 -5 8 -10 11 -10 2 0 4 5 4 10 0 6 -5 10 -11 10 -5 0
-7 -4 -4 -10z"/>
<path d="M2180 9476 c0 -13 7 -27 16 -30 8 -3 12 -2 9 4 -3 6 -1 10 4 10 6 0
11 9 11 20 0 13 -7 20 -20 20 -14 0 -20 -7 -20 -24z"/>
<path d="M3346 9429 c-5 -39 -10 -49 -21 -45 -10 4 -15 -1 -15 -14 0 -11 -4
-20 -9 -20 -5 0 -11 -9 -14 -21 -3 -12 -10 -18 -15 -15 -6 3 -13 -6 -16 -20
-5 -17 -12 -24 -21 -20 -19 7 -30 -54 -17 -91 6 -15 11 -22 11 -15 1 7 6 10
11 7 6 -4 8 -11 5 -16 -4 -5 0 -9 8 -9 8 0 22 -16 31 -35 10 -20 21 -33 26
-30 13 8 31 -30 24 -50 -4 -10 -2 -15 7 -13 9 2 15 -8 17 -29 l3 -33 175 0
174 0 0 25 c0 14 7 28 15 31 8 4 15 17 15 30 0 13 9 29 19 36 10 6 17 18 14
25 -3 7 2 13 11 13 8 0 18 11 22 25 5 19 11 24 25 20 17 -6 19 -1 19 49 0 44
-3 56 -15 56 -9 0 -18 8 -22 18 -3 9 -19 29 -35 43 -15 14 -28 33 -28 42 0 10
-7 17 -15 17 -11 0 -15 12 -15 45 l0 45 -184 0 -183 0 -7 -51z"/>
<path d="M4905 9440 c-4 -26 -12 -40 -22 -40 -8 0 -22 -18 -31 -40 -9 -22 -23
-40 -30 -40 -7 0 -20 -16 -28 -35 -8 -19 -20 -35 -28 -35 -15 0 -26 -21 -26
-51 0 -12 7 -19 20 -19 11 0 20 -7 20 -15 0 -8 9 -24 20 -35 11 -11 20 -25 20
-31 0 -5 4 -7 10 -4 5 3 15 -7 22 -22 7 -15 20 -34 30 -41 9 -7 18 -22 20 -35
3 -22 5 -22 186 -25 100 -1 182 1 182 4 0 4 -5 24 -12 45 -9 31 -15 38 -30 33
-14 -4 -18 0 -18 20 0 16 -6 26 -15 26 -8 0 -15 6 -15 14 0 7 -13 23 -30 36
-24 19 -29 28 -25 55 3 28 1 32 -15 28 -16 -4 -24 4 -40 42 -11 25 -24 43 -30
40 -5 -3 -10 1 -10 11 0 9 -10 27 -22 40 -44 45 -58 64 -58 77 0 14 -19 37
-31 37 -4 0 -10 -18 -14 -40z"/>
<path d="M2408 9413 c7 -3 16 -2 19 1 4 3 -2 6 -13 5 -11 0 -14 -3 -6 -6z"/>
<path d="M2154 9240 c0 -69 1 -97 3 -62 2 34 2 90 0 125 -2 34 -3 6 -3 -63z"/>
<path d="M7812 9243 c2 -9 9 -18 16 -19 7 -1 8 0 3 2 -6 3 -7 12 -4 20 3 8 0
14 -7 14 -6 0 -10 -8 -8 -17z"/>
<path d="M2340 9232 c0 -16 16 -27 40 -29 14 -1 18 0 8 3 -10 3 -18 9 -18 14
0 4 -7 10 -15 14 -8 3 -15 2 -15 -2z"/>
<path d="M2400 9160 c0 -6 7 -10 15 -10 8 0 15 2 15 4 0 2 -7 6 -15 10 -8 3
-15 1 -15 -4z"/>
<path d="M7823 9108 c-1 -27 1 -29 7 -13 11 27 12 45 2 45 -5 0 -9 -15 -9 -32z"/>
<path d="M2400 9117 c0 -10 7 -20 15 -23 8 -4 15 -13 15 -20 0 -22 30 -64 46
-64 8 0 13 -9 11 -22 -1 -17 4 -24 21 -26 18 -3 22 -10 22 -42 l0 -39 -67 -4
c-53 -2 -45 -4 35 -5 68 -1 101 1 97 8 -4 6 -10 8 -15 5 -4 -3 -6 4 -3 15 3
11 0 20 -6 20 -7 0 -9 13 -5 39 6 37 5 38 -20 34 -14 -3 -23 -9 -20 -14 3 -5
-4 -9 -15 -9 -12 0 -21 5 -21 11 0 5 5 7 10 4 14 -9 12 14 -3 29 -7 7 -17 11
-24 9 -6 -2 -17 13 -23 34 -10 27 -10 38 -1 41 12 4 15 32 3 32 -4 0 -14 -6
-20 -12 -10 -10 -15 -10 -22 2 -8 13 -10 12 -10 -3z"/>
<path d="M7725 9119 c-4 -6 -5 -12 -2 -15 2 -3 7 2 10 11 7 17 1 20 -8 4z"/>
<path d="M7751 9114 c0 -11 3 -14 6 -6 3 7 2 16 -1 19 -3 4 -6 -2 -5 -13z"/>
<path d="M7780 9095 c0 -8 5 -15 10 -15 6 0 10 7 10 15 0 8 -4 15 -10 15 -5 0
-10 -7 -10 -15z"/>
<path d="M2457 9071 c3 -13 11 -18 21 -14 10 4 14 3 11 -1 -9 -9 41 -59 50
-51 3 4 -2 12 -12 19 -9 7 -17 21 -17 30 0 9 -7 16 -16 16 -8 0 -12 5 -9 10 3
6 -3 10 -13 10 -15 0 -19 -5 -15 -19z"/>
<path d="M7730 9080 c0 -5 5 -10 10 -10 6 0 10 5 10 10 0 6 -4 10 -10 10 -5 0
-10 -4 -10 -10z"/>
<path d="M7690 9066 c0 -2 7 -7 16 -10 8 -3 12 -2 9 4 -6 10 -25 14 -25 6z"/>
<path d="M8103 9000 c0 -25 2 -35 4 -22 2 12 2 32 0 45 -2 12 -4 2 -4 -23z"/>
<path d="M2441 8983 c0 -16 3 -22 6 -15 2 6 9 9 15 6 6 -4 5 2 -1 15 -16 28
-21 26 -20 -6z"/>
<path d="M7632 8984 c-7 -8 -8 -14 -3 -14 10 0 25 19 20 25 -2 1 -10 -3 -17
-11z"/>
<path d="M2571 8936 c2 -2 14 -9 27 -15 18 -10 22 -9 22 4 0 10 -9 15 -27 15
-14 0 -24 -2 -22 -4z"/>
<path d="M2598 8898 c5 -7 12 -22 15 -33 4 -16 5 -14 6 6 1 17 -5 29 -15 33
-13 5 -14 3 -6 -6z"/>
<path d="M2380 8850 c32 -10 220 -13 220 -2 0 4 -55 8 -123 9 -75 1 -112 -2
-97 -7z"/>
<path d="M7438 8682 l-1078 -2 0 -25 c0 -21 5 -25 31 -25 30 0 31 -2 25 -30
-5 -26 -2 -32 19 -40 25 -9 29 -18 26 -52 -2 -13 5 -18 21 -18 36 0 48 -19 48
-77 0 -52 0 -53 30 -53 21 0 30 -5 30 -17 0 -9 8 -34 17 -55 12 -27 23 -38 39
-38 17 0 23 -7 28 -39 4 -27 12 -40 26 -44 15 -4 20 -14 20 -36 0 -23 4 -31
18 -31 22 0 57 -69 54 -105 -1 -18 3 -22 17 -18 22 6 44 -27 35 -51 -4 -10 2
-17 20 -22 19 -4 26 -13 26 -30 0 -17 8 -27 25 -34 20 -8 25 -16 25 -45 0 -32
2 -35 30 -35 30 0 33 -4 34 -50 1 -20 7 -26 29 -28 23 -3 27 -8 27 -37 0 -29
4 -34 28 -37 24 -3 27 -6 24 -39 -2 -35 -1 -37 33 -43 34 -7 35 -8 35 -51 0
-41 2 -45 25 -45 22 0 25 -4 25 -35 0 -28 4 -35 20 -35 20 0 25 -14 21 -54 -1
-14 4 -17 19 -13 23 6 45 -16 37 -37 -4 -9 4 -21 19 -30 13 -9 24 -25 24 -36
0 -13 5 -17 14 -14 17 6 29 -25 20 -50 -4 -12 0 -16 15 -16 15 0 21 -7 23 -22
0 -13 1 -30 2 -38 1 -8 12 -17 26 -21 14 -4 613 -7 1333 -8 l1307 -1 -2 293
-3 292 -245 0 -245 0 -3 -109 c-2 -93 -5 -109 -20 -113 -9 -2 -25 -17 -34 -34
-9 -16 -23 -29 -30 -29 -12 0 -25 -23 -41 -71 -5 -15 -30 -17 -205 -18 l-199
-2 -7 41 c-5 31 -10 40 -21 36 -8 -3 -15 -2 -15 3 0 4 -11 20 -25 35 -14 15
-25 31 -25 35 0 5 -9 11 -20 14 -18 5 -20 14 -20 111 l0 106 -235 0 -235 0 0
25 c0 16 -6 25 -15 25 -8 0 -15 9 -15 20 0 11 -7 23 -15 26 -8 4 -15 12 -15
20 0 8 -4 14 -10 14 -5 0 -10 7 -10 15 0 8 -6 15 -13 15 -7 0 -21 19 -31 41
-10 23 -27 44 -37 46 -27 7 -23 30 11 70 17 18 30 38 30 44 0 6 16 26 35 45
20 19 34 38 31 43 -3 4 6 13 19 19 15 7 28 24 33 44 l8 33 76 3 76 3 6 31 c3
17 6 73 6 124 l0 94 45 0 45 0 0 -125 0 -125 685 0 685 0 0 260 0 260 -784 0
c-431 0 -790 1 -798 3 -7 1 -498 1 -1090 -1z m-178 -237 l0 -85 -80 0 -80 0 0
85 0 85 80 0 80 0 0 -85z m570 10 c0 -8 -2 -15 -4 -15 -2 0 -6 7 -10 15 -3 8
-1 15 4 15 6 0 10 -7 10 -15z m-477 -470 c-3 -9 -8 -14 -10 -11 -3 3 -2 9 2
15 9 16 15 13 8 -4z m899 -777 c2 -12 2 -41 0 -63 l-4 -40 -208 3 -208 3 -4
52 c-3 29 -3 54 -2 57 1 3 97 7 212 9 l210 3 4 -24z"/>
<path d="M60 8420 l0 -260 240 0 239 0 3 -127 3 -128 273 -3 272 -2 0 130 0
130 128 1 c70 0 200 2 289 5 l161 5 4 -23 c2 -13 10 -23 18 -23 9 0 16 -11 18
-27 2 -18 11 -28 26 -32 16 -4 25 -15 29 -35 4 -17 14 -30 26 -34 12 -3 25
-17 31 -31 5 -14 16 -26 24 -26 15 0 36 -47 28 -68 -3 -10 -7 -10 -18 -1 -12
10 -13 9 -8 -4 3 -8 -3 -25 -13 -36 -10 -11 -27 -31 -39 -44 -11 -12 -18 -29
-16 -36 3 -8 0 -11 -6 -7 -7 4 -14 -4 -18 -19 -3 -14 -12 -25 -20 -25 -8 0
-14 -9 -14 -19 0 -10 -7 -21 -15 -25 -8 -3 -15 -15 -15 -26 0 -21 -40 -22
-1558 -25 l-72 0 0 -292 0 -293 1303 0 c716 0 1319 3 1339 6 35 6 37 9 40 48
2 31 7 40 19 38 12 -2 19 8 23 32 6 31 35 70 37 50 1 -5 7 9 13 31 9 28 19 41
34 43 17 3 23 12 28 42 4 27 13 41 30 49 17 8 24 19 24 40 0 28 22 47 41 35 8
-5 14 17 10 39 -3 18 21 47 39 47 14 0 20 7 20 24 0 40 11 56 36 56 20 0 24 5
24 29 0 32 22 61 46 61 8 0 14 10 14 24 0 30 25 57 45 50 11 -5 15 1 15 21 0
36 18 68 36 61 13 -5 18 11 17 52 -1 6 8 12 19 12 16 0 19 5 16 25 -6 31 14
49 45 41 21 -5 22 -3 19 35 -5 46 12 74 29 49 8 -12 10 -11 8 5 -4 54 1 65 27
65 18 0 25 5 23 18 -4 39 1 53 19 50 11 -2 18 4 20 19 2 12 10 27 18 33 8 7
14 18 14 26 0 7 9 16 21 19 11 4 18 12 16 18 -9 25 12 57 37 57 23 0 25 4 28
52 3 46 6 53 28 58 19 5 26 14 30 40 4 29 10 36 33 38 24 3 27 8 27 38 0 31 8
39 33 35 4 0 7 10 7 24 l0 25 -1875 0 -1875 0 0 -260z m2120 85 l0 -75 -134 0
-135 0 -5 53 c-12 103 -21 97 136 97 l138 0 0 -75z m910 -60 l0 -85 -80 0 -80
0 0 85 0 85 80 0 80 0 0 -85z m-2010 -145 l0 -140 -270 0 -270 0 0 133 c0 74
3 137 7 140 3 4 125 7 270 7 l263 0 0 -140z m1668 -164 c2 -18 11 -30 23 -33
10 -3 19 -9 19 -15 0 -16 66 -88 81 -88 6 0 7 -5 4 -10 -10 -17 4 -47 25 -53
17 -4 20 -14 20 -67 0 -52 -3 -63 -19 -67 -11 -3 -22 -12 -26 -21 -14 -39 -31
-62 -43 -62 -7 0 -17 -10 -21 -22 -5 -13 -23 -38 -40 -56 -17 -18 -31 -42 -31
-52 0 -16 -12 -19 -102 -25 -57 -4 -130 -5 -163 -3 -55 3 -60 5 -63 28 -2 14
-19 41 -37 60 -19 19 -34 39 -34 43 1 5 -15 27 -35 49 -20 22 -36 41 -36 43 0
2 -11 16 -25 30 -22 21 -25 31 -20 62 4 21 15 50 26 65 10 15 19 32 19 38 0 6
5 8 10 5 6 -3 10 1 10 9 0 9 4 16 8 16 4 0 20 19 35 43 15 23 36 48 47 55 11
7 20 23 20 37 l0 25 173 -2 172 -3 3 -29z"/>
<path d="M4658 8455 l-3 -50 -92 0 -93 0 0 -47 0 -48 -110 0 -110 0 0 -50 0
-50 -44 0 c-44 0 -45 0 -48 -37 l-3 -38 -50 0 -50 0 3 -94 3 -93 -53 4 -53 3
3 -42 c4 -55 -2 -65 -33 -53 -24 9 -25 8 -25 -35 l0 -45 -36 0 -37 0 6 -40 5
-40 -49 0 -49 0 -2 -307 -3 -308 -45 0 -45 0 -3 -47 c-3 -47 -4 -48 -38 -48
l-34 0 0 -335 0 -335 40 0 40 0 0 -40 0 -40 49 0 50 0 3 -47 3 -48 43 -3 42
-3 0 -45 0 -44 210 0 210 0 0 320 0 320 50 0 50 0 0 -115 0 -115 95 0 95 0 0
-104 0 -104 125 2 125 1 0 103 0 103 90 -3 90 -3 0 69 c0 66 -1 68 -18 53 -10
-10 -26 -17 -36 -17 -15 0 -17 9 -16 58 3 114 22 102 -156 102 l-156 0 4 123
4 122 39 0 40 0 3 -47 3 -48 50 0 49 0 0 45 0 45 45 0 45 0 0 140 0 140 255 0
255 0 0 45 0 45 160 0 160 0 0 -59 0 -60 48 -3 47 -3 -4 -121 c-2 -67 0 -140
4 -163 l7 -41 49 0 49 0 0 -417 0 -418 215 3 215 3 0 44 0 45 45 0 45 0 0 49
0 50 48 3 47 3 -3 38 -3 37 44 0 45 0 7 213 c3 116 5 268 3 337 l-3 125 -42
-3 -43 -4 0 53 0 52 -45 -5 -45 -6 0 309 0 309 -56 0 -57 0 6 40 c5 38 4 40
-23 40 -27 0 -28 2 -23 40 l6 40 -42 0 -41 0 0 45 0 45 -45 0 -45 0 0 90 0 90
-50 0 -50 0 0 39 0 40 -52 3 -53 3 3 48 2 47 -100 0 -100 0 0 50 0 50 -115 0
-115 0 0 48 0 47 -415 0 -414 0 -3 -50z m662 -215 l0 -40 243 -2 c185 -2 242
-6 243 -15 1 -7 2 -24 3 -38 1 -23 4 -25 56 -25 l55 0 0 -44 c0 -25 -4 -48
-10 -51 -5 -3 -10 -12 -10 -18 0 -7 7 -4 14 6 11 14 25 17 58 15 l43 -3 -1
-53 c-1 -38 1 -50 10 -44 16 13 56 21 72 15 18 -7 19 -77 2 -91 -7 -5 -22 -12
-33 -15 -18 -4 -18 -5 3 -6 13 -1 26 -10 32 -23 8 -22 9 -22 9 4 1 32 29 51
69 46 25 -3 27 -6 27 -48 l-1 -46 51 1 50 0 6 -55 c3 -30 6 -49 7 -42 1 8 20
12 52 12 56 0 54 5 44 -99 l-7 -61 -45 0 c-43 0 -44 1 -39 27 8 45 -6 59 -52
55 -34 -3 -41 -8 -41 -26 0 -45 12 -65 41 -71 l30 -7 -3 -151 -3 -151 -37 -4
-38 -3 0 240 0 241 33 1 32 2 -35 6 c-29 5 -36 11 -41 36 l-7 30 -1 -27 c-1
-26 -4 -28 -40 -28 -40 0 -40 0 -43 42 l-3 42 -45 0 c-45 1 -45 1 -50 41 l-5
40 -49 -3 -48 -3 6 45 7 46 -175 0 -176 0 0 40 0 40 -50 0 -50 0 0 40 0 40
-390 0 -390 0 0 -77 0 -78 -228 0 -227 -1 -3 -41 -3 -42 -47 -3 -47 -3 3 -37
4 -38 -51 0 -51 0 0 -46 0 -46 -47 4 -48 3 4 -247 3 -248 -41 0 -42 0 3 153 3
152 28 3 c26 3 27 6 27 58 0 53 -1 55 -22 48 -13 -4 -32 -8 -43 -9 -16 -1 -21
-10 -23 -41 -4 -45 -12 -52 -51 -46 -26 4 -29 8 -35 55 -13 108 -13 107 47
107 l52 0 0 42 c0 41 1 43 33 46 18 2 39 -1 45 -6 8 -7 16 -5 25 4 7 8 8 14 2
14 -5 0 -10 15 -10 34 0 40 29 53 72 32 30 -15 44 -10 27 10 -6 7 -9 28 -7 46
3 29 7 33 35 36 18 2 42 -2 54 -8 15 -9 24 -9 32 -1 8 8 6 11 -7 11 -14 0 -17
7 -14 43 l3 42 48 0 47 0 0 43 0 42 60 0 60 0 0 45 0 44 253 0 252 0 3 41 3
40 220 0 219 0 0 -40z m-442 -442 l3 -48 40 0 c46 0 54 -13 45 -65 -7 -33 -9
-35 -46 -35 l-40 0 0 -45 0 -45 100 0 100 0 0 -50 0 -50 -105 0 c-105 0 -105
0 -105 -24 0 -38 -17 -40 -23 -3 -2 17 -1 34 4 35 5 2 9 24 9 48 l0 44 -87 0
c-49 0 -105 3 -125 6 -36 6 -38 8 -38 45 0 37 2 39 25 33 23 -6 25 -3 25 27 0
19 3 44 6 57 6 21 4 22 -75 22 l-81 0 0 50 0 50 183 -2 182 -3 3 -47z m968
-63 c3 -14 3 -36 0 -50 -6 -24 -9 -25 -91 -25 l-85 0 0 -50 0 -50 -51 0 -50 0
3 53 3 52 43 3 c42 3 42 3 42 42 0 44 4 45 122 48 54 2 58 0 64 -23z m-1390
-4 c-4 -5 0 -12 6 -15 10 -5 10 -7 1 -12 -7 -3 -9 -12 -6 -20 3 -9 -1 -14 -14
-14 -16 0 -18 6 -15 35 3 22 10 35 19 35 8 0 12 -4 9 -9z m54 -57 c0 -2 -9 -4
-20 -4 -11 0 -20 4 -20 9 0 5 9 7 20 4 11 -3 20 -7 20 -9z m314 -259 c-3 -7
-14 -11 -25 -8 -27 7 -24 18 5 19 16 1 23 -3 20 -11z m-67 -47 c-3 -8 -6 -5
-6 6 -1 11 2 17 5 13 3 -3 4 -12 1 -19z m-827 -553 l0 -345 -86 0 -85 0 2 117
1 117 -56 -3 -56 -2 0 140 0 141 55 0 55 0 0 40 c0 37 3 41 30 46 16 4 27 10
24 15 -3 5 16 9 43 10 39 1 43 3 23 9 -22 7 -23 8 -4 9 12 1 27 8 34 16 10 13
9 15 -11 16 -22 0 -23 1 -4 9 11 5 23 9 28 9 4 1 7 -154 7 -344z m2480 215 l0
-50 55 0 55 0 0 -141 0 -141 -55 4 -55 3 0 -117 0 -118 -85 0 -85 0 0 299 c0
280 1 299 18 295 9 -3 42 -1 72 4 30 6 61 10 68 11 8 1 12 -15 12 -49z m-1920
-275 l0 -35 -60 0 -60 0 0 35 0 35 60 0 60 0 0 -35z"/>
<path d="M6140 7766 c0 -9 40 -13 46 -5 3 5 -6 9 -20 9 -14 0 -26 -2 -26 -4z"/>
<path d="M1828 7893 c6 -2 18 -2 25 0 6 3 1 5 -13 5 -14 0 -19 -2 -12 -5z"/>
<path d="M8953 7655 c0 -7 6 -11 14 -8 7 3 13 6 13 8 0 2 -6 5 -13 8 -8 3 -14
-1 -14 -8z"/>
<path d="M9611 7644 c0 -11 3 -14 6 -6 3 7 2 16 -1 19 -3 4 -6 -2 -5 -13z"/>
<path d="M3120 6950 l0 -110 83 -1 c84 -2 123 -2 145 0 9 1 12 30 12 111 l0
110 -120 0 -120 0 0 -110z"/>
<path d="M4691 6834 c0 -11 3 -14 6 -6 3 7 2 16 -1 19 -3 4 -6 -2 -5 -13z"/>
<path d="M7680 6729 c0 -4 7 -12 16 -20 8 -7 13 -21 11 -31 -3 -10 -1 -18 4
-18 5 0 9 7 9 15 0 8 5 15 10 15 6 0 9 -3 8 -7 0 -5 2 -15 6 -24 6 -14 127
-15 1180 -15 l1174 -1 4 40 c2 21 -1 41 -7 43 -18 7 -2415 9 -2415 3z"/>
<path d="M60 6684 l0 -47 1118 6 c1088 5 1257 3 1247 -13 -3 -5 0 -12 6 -16 9
-5 10 1 5 20 -5 20 -3 26 9 26 9 0 18 8 22 18 3 9 13 25 21 35 14 16 -44 17
-1206 17 l-1222 0 0 -46z"/>
<path d="M5270 6639 l0 -81 -35 4 -35 4 0 -56 0 -55 87 0 88 0 3 -97 3 -98
118 0 118 0 8 101 7 101 91 -3 92 -3 3 132 3 132 -276 0 -275 0 0 -81z"/>
<path d="M4958 6673 c7 -3 16 -2 19 1 4 3 -2 6 -13 5 -11 0 -14 -3 -6 -6z"/>
<path d="M7755 6620 c3 -5 8 -10 11 -10 2 0 4 5 4 10 0 6 -5 10 -11 10 -5 0
-7 -4 -4 -10z"/>
<path d="M2318 6565 c-3 -3 -512 -5 -1132 -5 l-1126 0 0 -40 0 -40 68 0 c146
-1 2207 0 2212 1 3 1 8 1 11 1 3 -1 3 13 1 30 -4 29 -3 30 22 26 20 -4 26 -1
26 13 0 15 -8 19 -38 19 -21 0 -41 -2 -44 -5z"/>
<path d="M7788 6564 c-13 -12 -9 -26 6 -21 20 8 36 -13 36 -46 0 -24 3 -28 18
-22 21 8 2161 7 2215 -2 20 -3 37 -2 38 3 0 5 2 26 5 47 l5 37 -83 0 c-62 0
-1301 -2 -1423 -2 -11 0 -198 3 -415 7 -217 4 -398 3 -402 -1z"/>
<path d="M7690 6419 c0 -5 5 -7 10 -4 6 3 10 8 10 11 0 2 -4 4 -10 4 -5 0 -10
-5 -10 -11z"/>
<path d="M64 6401 c-2 -2 -4 -21 -4 -42 l0 -38 1067 -1 c693 0 1071 -4 1077
-10 17 -17 26 -11 26 14 0 38 17 74 37 79 10 3 -481 4 -1090 4 -610 -1 -1110
-4 -1113 -6z"/>
<path d="M2295 6400 c3 -5 10 -10 16 -10 5 0 9 5 9 10 0 6 -7 10 -16 10 -8 0
-12 -4 -9 -10z"/>
<path d="M2973 6403 l-53 -4 0 -52 0 -52 -50 3 -50 4 0 -55 0 -55 46 -4 c25
-2 47 -1 50 1 2 2 4 24 4 49 l0 45 40 -7 c39 -6 40 -6 40 24 l0 30 75 0 c74 0
75 0 75 -26 0 -26 2 -26 45 -22 l45 6 0 -49 0 -49 50 0 50 0 0 58 0 57 -47 0
-47 0 3 53 2 52 -113 -2 c-62 -1 -137 -3 -165 -5z"/>
<path d="M7875 6400 c-3 -5 1 -10 10 -10 9 0 13 5 10 10 -3 6 -8 10 -10 10 -2
0 -7 -4 -10 -10z"/>
<path d="M7941 6400 c-15 -4 -18 -9 -11 -20 5 -8 10 -26 10 -40 l0 -25 522 6
c487 6 1020 8 1458 5 l185 -1 0 40 0 40 -1072 0 c-589 0 -1081 -2 -1092 -5z"/>
<path d="M7720 6356 c0 -2 7 -6 15 -10 8 -3 15 -1 15 4 0 6 -7 10 -15 10 -8 0
-15 -2 -15 -4z"/>
<path d="M60 6219 l0 -50 1008 2 c554 1 1019 -2 1034 -6 25 -6 28 -5 28 18 0
23 26 56 39 49 3 -1 7 6 9 18 l3 20 -1060 0 -1061 0 0 -51z"/>
<path d="M7997 6251 c3 -10 13 -21 24 -24 13 -3 19 -14 19 -31 l0 -26 605 0
605 0 1 23 c1 12 0 30 -1 41 -1 12 2 16 11 11 6 -5 39 -9 73 -10 34 -1 53 0
44 4 -10 3 65 6 166 6 l183 1 1 -28 c0 -15 3 -32 7 -38 4 -6 75 -10 185 -10
l178 0 4 51 3 51 -370 -7 c-203 -4 -395 -6 -425 -5 -30 1 -339 4 -687 6 -623
5 -631 5 -626 -15z"/>
<path d="M9395 6220 c-4 -6 6 -7 27 -3 44 8 48 13 10 13 -17 0 -34 -4 -37 -10z"/>
<path d="M9510 6220 c8 -5 26 -10 39 -10 32 0 24 6 -19 14 -25 4 -31 3 -20 -4z"/>
<path d="M9385 6190 c-15 -6 -7 -9 29 -9 27 -1 47 1 45 3 -11 9 -56 13 -74 6z"/>
<path d="M60 6075 l0 -55 573 -2 c456 -1 1364 0 1399 2 4 0 11 15 16 33 6 21
15 32 25 31 11 -1 17 6 17 21 l0 22 -1015 2 -1015 2 0 -56z"/>
<path d="M2820 6068 l0 -63 44 3 43 4 7 -61 7 -61 142 0 c191 0 189 0 185 64
l-3 51 48 3 48 3 -3 57 -3 57 -47 3 -48 3 0 -50 0 -51 -45 0 c-43 0 -45 -1
-45 -30 l0 -30 -75 0 -75 0 0 30 c0 28 -2 30 -39 30 l-40 0 -3 48 -3 47 -47 3
-48 3 0 -63z"/>
<path d="M8100 6118 c0 -3 -3 -13 -6 -22 -5 -12 0 -16 20 -16 22 0 26 -4 26
-30 0 -17 5 -30 13 -31 93 -5 1083 5 1087 11 3 5 30 10 60 13 l55 3 -57 2
c-32 1 -58 6 -58 12 0 24 48 30 236 30 108 -1 199 1 202 4 3 3 -94 6 -215 6
-129 0 -223 4 -225 9 -3 11 -1138 20 -1138 9z"/>
<path d="M9917 6123 c-137 -3 -182 -7 -193 -17 -8 -9 -10 -16 -3 -18 9 -3 16
-24 18 -55 1 -10 44 -13 181 -13 l180 0 0 55 c0 30 -1 54 -2 53 -2 -1 -83 -4
-181 -5z"/>
<path d="M9423 6043 c26 -2 68 -2 95 0 26 2 4 3 -48 3 -52 0 -74 -1 -47 -3z"/>
<path d="M7128 6002 l-148 -3 0 -23 c0 -22 -51 -86 -68 -86 -4 0 -8 -11 -8
-25 -3 -43 -12 -55 -44 -55 l-30 0 0 -60 c0 -57 1 -60 25 -60 21 0 25 -5 25
-30 0 -23 5 -30 19 -30 11 0 22 -8 26 -19 3 -10 17 -31 30 -45 14 -15 25 -34
25 -42 0 -12 25 -14 148 -14 147 0 147 0 160 25 6 14 18 36 25 50 6 13 22 27
35 30 15 4 25 15 28 35 6 29 27 45 45 34 5 -3 9 23 9 59 0 61 -2 65 -25 71
-18 5 -25 13 -25 31 0 14 -6 25 -12 25 -7 0 -21 14 -31 31 -9 17 -26 33 -38
36 -12 3 -18 11 -15 19 3 8 2 22 -2 31 -6 16 -22 18 -154 15z"/>
<path d="M60 5900 l0 -80 888 0 c697 0 891 -3 901 -12 11 -11 13 -10 7 0 -5 8
2 14 23 18 24 5 29 11 28 33 -2 21 2 26 19 24 18 -2 23 5 28 38 4 27 11 39 21
37 7 -2 15 2 17 7 2 7 -325 11 -964 12 l-968 3 0 -80z"/>
<path d="M8177 5974 c-10 -11 2 -24 18 -18 19 8 48 -49 32 -65 -8 -8 -4 -11
17 -11 25 0 28 -3 24 -24 -4 -20 0 -25 26 -31 27 -5 1797 -8 1802 -2 1 1 3 35
5 75 l4 73 -961 5 c-528 2 -963 1 -967 -2z"/>
<path d="M4967 5941 c3 -11 12 -22 22 -24 11 -3 10 -5 -5 -6 -16 -1 -23 -10
-28 -33 -3 -17 -5 -32 -4 -34 9 -8 275 -8 267 1 -3 2 -23 7 -45 11 -51 8 -56
14 -11 14 30 0 37 4 37 20 0 11 5 20 11 20 5 0 7 5 4 10 -3 6 -1 10 4 10 6 0
11 7 11 15 0 13 -22 15 -134 15 -128 0 -134 -1 -129 -19z m70 -47 c-3 -3 -12
-4 -19 -1 -8 3 -5 6 6 6 11 1 17 -2 13 -5z m76 -31 c-7 -2 -19 -2 -25 0 -7 3
-2 5 12 5 14 0 19 -2 13 -5z"/>
<path d="M3930 5874 l0 -37 -45 5 -45 6 0 -56 0 -55 -44 5 c-48 6 -56 -3 -56
-64 0 -27 -2 -28 -50 -28 l-50 0 0 -55 0 -55 -50 0 -50 0 0 -55 0 -55 -39 0
c-38 0 -38 -1 -44 -42 -3 -24 -3 -93 0 -154 4 -81 3 -113 -6 -118 -7 -4 -66
-8 -131 -9 l-119 -1 -3 -46 -3 -45 -40 0 -40 0 -5 -50 -5 -50 -42 -3 c-41 -3
-43 -4 -43 -37 0 -57 -7 -65 -60 -65 l-47 0 5 -50 5 -50 -51 0 -51 0 -3 -52
-3 -53 -49 -5 -50 -5 0 -190 -1 -190 -47 3 -48 4 0 -51 0 -51 -45 0 -45 0 0
-100 0 -100 -45 0 -44 0 -3 -142 -3 -143 -52 3 -52 3 -3 -118 -3 -118 -52 -3
-53 -3 0 -115 0 -114 -45 0 -45 0 0 -51 0 -51 -47 3 -48 3 3 -54 4 -55 -51 3
-51 4 0 -44 c-1 -67 -12 -293 -14 -295 -1 -2 -18 -4 -37 -6 -32 -4 -35 -7 -43
-51 l-9 -46 -561 2 -561 3 -6 95 c-5 92 -5 90 -7 -46 l-2 -141 -215 -2 -214
-2 -7 50 -7 51 -98 -2 -99 -2 0 -118 0 -118 850 0 850 0 1 -22 c1 -13 2 -130
3 -260 l2 -238 -238 0 -238 0 0 -50 0 -50 45 0 45 0 0 -161 0 -162 -45 6 -45
7 0 -45 0 -45 -173 2 c-144 3 -172 5 -173 18 -1 8 -2 20 -3 27 0 6 -18 13 -39
15 -29 2 -38 8 -40 24 -2 17 -10 21 -40 20 -36 -1 -37 1 -46 41 -9 41 -11 43
-48 43 l-38 0 0 75 c0 62 -3 73 -15 69 -8 -4 -12 -10 -9 -15 3 -6 -10 -9 -30
-7 -19 1 -33 5 -30 9 2 4 0 10 -6 14 -28 17 4 23 157 29 173 7 214 13 194 25
-11 7 -93 12 -266 14 l-90 2 -3 47 -3 48 -45 0 -44 0 0 51 0 50 -42 -3 -43 -3
-3 -48 -3 -47 -175 0 -174 0 0 -585 0 -585 28 -1 27 -1 -27 -10 c-26 -9 -28
-14 -28 -64 0 -30 4 -54 9 -54 5 0 8 24 8 53 -2 48 0 52 23 55 14 2 30 7 35
12 6 4 526 8 1158 9 l1147 1 0 -70 0 -70 858 0 c1986 -1 2338 -1 3360 -1
l1072 1 0 73 0 72 897 -4 c494 -2 878 -7 853 -10 -25 -3 63 -6 195 -6 135 0
205 3 160 6 -56 4 -27 6 95 6 l175 0 2 586 2 587 -167 2 -167 3 -3 48 -3 47
-45 0 -44 0 0 -50 0 -50 -45 0 -45 0 0 -44 0 -43 -80 -7 c-44 -4 -84 -5 -89
-2 -5 4 -12 2 -16 -4 -3 -5 -41 -10 -83 -10 -115 -1 -68 -17 68 -24 63 -3 134
-5 158 -6 39 0 42 -2 42 -28 0 -38 -5 -41 -46 -32 l-34 8 0 -59 0 -58 -47 -3
c-29 -2 -48 -8 -49 -15 -1 -7 -2 -28 -3 -46 -1 -31 -3 -33 -31 -29 -16 2 -30
8 -30 13 0 5 3 8 8 8 19 -3 33 2 27 11 -3 6 -17 10 -30 10 -21 0 -24 -5 -30
-65 -7 -63 -8 -65 -36 -65 -22 0 -29 5 -29 20 0 15 7 20 25 20 14 0 25 5 25
10 0 6 -9 10 -19 10 -11 0 -26 3 -35 6 -13 5 -16 -2 -16 -35 l0 -41 -170 0
c-129 0 -170 3 -171 13 -1 6 0 27 1 45 2 32 1 32 -47 32 l-48 0 -3 149 -3 148
46 5 c25 3 48 7 50 9 2 2 1 25 -2 52 l-6 47 -238 0 -239 0 0 260 0 260 850 0
851 0 -3 117 -3 118 -95 3 c-60 2 -97 7 -102 15 -4 7 -8 -15 -8 -48 l0 -60
-219 -4 -220 -3 -3 46 -3 47 -557 -1 -558 0 0 49 0 50 -42 3 -43 3 0 162 1
162 -51 3 -50 3 -1 55 -1 55 -47 -2 -46 -3 0 50 0 50 -45 0 -45 0 0 110 c0 97
2 110 18 112 9 1 -14 4 -53 7 l-70 6 -3 118 -3 118 -62 -2 -62 -3 1 142 1 142
-44 0 -43 0 0 100 0 100 -45 0 -46 0 7 51 7 51 -49 -3 -49 -4 -3 192 -2 192
-48 3 -47 3 -3 53 -3 52 -50 0 -49 0 0 54 c0 51 -1 53 -25 48 -13 -2 -36 -1
-51 2 -23 6 -25 10 -23 54 l3 47 -44 3 -45 3 3 49 4 50 -52 0 -52 0 4 40 c2
22 0 41 -4 41 -5 1 -12 3 -18 4 -5 1 -65 3 -132 4 l-123 1 3 160 3 160 -46 0
-46 0 2 58 3 57 -49 0 -50 0 0 55 0 54 -47 -3 -48 -3 0 51 0 50 -50 -6 -50 -6
0 57 0 56 -45 0 c-43 0 -45 1 -45 30 l0 30 -222 -2 c-170 -2 -223 -6 -224 -15
-1 -7 -2 -44 -3 -82 l-1 -70 -47 -3 -48 -3 -3 -40 c-5 -79 -6 -81 -57 -77 -30
3 -45 0 -45 -8 0 -7 15 -10 43 -8 l42 3 -1 -35 c0 -34 -2 -35 -45 -40 -44 -5
-44 -5 -49 -50 l-5 -45 -45 -3 c-52 -4 -60 -13 -60 -66 l0 -39 -44 6 c-39 6
-44 4 -50 -16 -3 -12 -6 -34 -6 -49 l0 -28 -274 0 c-151 0 -281 -3 -290 -6
-12 -5 -15 5 -18 48 l-3 53 -40 3 c-43 4 -58 17 -49 45 9 29 -14 47 -61 47
l-43 0 -7 98 -7 97 -55 -3 -55 -4 2 49 c3 78 6 74 -55 67 l-55 -7 0 92 0 91
-220 0 -220 0 0 -36z m538 -583 c8 -4 13 -21 12 -37 -4 -52 -3 -53 63 -56 61
-3 62 -3 63 -33 1 -52 3 -54 47 -57 44 -3 43 -2 46 -71 1 -26 4 -27 39 -25
l37 3 3 -47 3 -48 310 0 309 0 0 49 0 49 40 -5 40 -6 0 54 0 54 45 -3 45 -4 0
46 0 46 65 0 65 0 0 50 0 50 55 0 55 0 0 -340 0 -340 -69 0 -69 0 -7 -50 c-6
-45 -9 -50 -33 -52 -15 0 -34 -1 -42 -2 -12 -1 -16 -20 -18 -98 -3 -93 -4 -98
-26 -104 -13 -3 -33 -4 -44 -2 -12 2 -21 0 -22 -4 0 -5 0 -107 0 -228 l0 -220
385 0 385 0 2 323 3 322 62 3 63 3 2 -323 3 -323 328 -3 327 -2 0 -50 0 -50
55 0 56 0 -3 -72 -3 -73 -50 0 -50 0 2 -705 c0 -388 2 -716 2 -730 1 -23 4
-25 54 -25 l52 0 0 58 0 57 52 0 52 0 3 53 3 52 205 0 205 0 3 -48 3 -48 34 7
34 6 7 -51 7 -51 43 0 c42 0 44 -1 44 -29 0 -52 8 -61 56 -61 l44 0 0 -155 0
-155 -70 0 -70 0 0 -50 0 -50 -227 -2 c-126 -1 -248 -3 -273 -4 l-45 -1 -1
-44 c0 -24 -1 -68 -2 -96 l-2 -53 -45 0 -45 0 0 140 c0 86 -4 140 -10 140 -6
0 -8 -73 -5 -205 l5 -205 -60 0 -60 0 0 -40 0 -40 -50 0 -50 0 -2 123 c-1 87
-3 109 -8 77 -6 -37 -7 -39 -9 -15 -2 17 -5 23 -8 15 -2 -8 -7 -21 -9 -29 -3
-10 -11 -5 -24 17 -11 18 -24 32 -29 32 -5 0 -12 10 -16 23 l-7 22 -8 -25 c-6
-22 -8 -23 -15 -7 -4 9 -15 17 -24 17 -14 1 -13 3 3 15 20 15 10 20 -18 9 -9
-3 -13 -10 -10 -16 4 -5 -8 -8 -27 -6 -19 2 -32 8 -29 13 3 6 13 9 23 8 9 -2
17 2 17 7 0 6 -10 10 -22 10 -18 0 -20 2 -8 10 9 6 18 6 24 0 12 -12 36 -13
36 -2 0 7 -37 25 -77 37 -28 8 -30 25 -5 25 11 0 24 11 30 24 10 22 8 24 -30
37 -34 11 -41 11 -49 -2 -7 -11 -9 -10 -9 5 0 15 -5 17 -30 12 -20 -4 -32 -1
-36 7 -5 15 -64 22 -64 7 0 -10 21 -14 48 -11 18 3 15 -17 -4 -21 -13 -2 -11
-8 10 -31 14 -15 30 -27 36 -27 7 0 9 -8 5 -19 -7 -22 21 -36 68 -33 15 1 27
-3 27 -9 0 -6 -8 -9 -18 -7 -26 7 -46 -26 -32 -52 9 -16 8 -20 -5 -20 -8 0
-15 5 -15 10 0 6 -7 10 -16 10 -12 0 -11 5 7 19 24 20 24 20 4 35 -11 8 -26
16 -32 16 -7 0 -13 8 -13 18 0 24 -64 90 -95 98 -15 4 -25 2 -25 -5 0 -18 -39
-12 -52 8 -12 19 -13 19 -37 1 -32 -22 -39 -22 -73 -2 -15 9 -31 13 -35 8 -10
-10 39 -47 55 -41 6 2 12 -2 12 -9 0 -8 7 -16 15 -20 15 -5 21 -36 7 -36 -4 0
-15 9 -25 20 -22 26 -41 26 -34 0 6 -22 0 -25 -23 -10 -13 9 -13 12 3 24 16
12 15 16 -16 50 -18 20 -40 36 -47 36 -9 0 -6 -7 8 -20 23 -21 30 -50 12 -50
-5 0 -10 7 -10 15 0 10 -10 15 -32 15 -17 0 -28 -3 -25 -6 9 -10 -12 -44 -27
-44 -16 0 -41 28 -33 37 4 3 13 0 22 -7 19 -15 28 -9 19 14 -8 21 -54 22 -54
0 0 -8 -5 -12 -11 -9 -6 4 -8 13 -5 21 3 7 1 16 -3 19 -5 3 -12 -3 -16 -12 -3
-10 -1 -19 4 -21 6 -2 11 -12 11 -23 0 -12 -5 -16 -15 -13 -8 4 -15 17 -15 30
0 13 -4 24 -10 24 -5 0 -10 6 -10 14 0 17 -18 31 -28 21 -3 -3 -1 -9 5 -13 6
-4 15 -20 19 -36 5 -21 4 -27 -5 -22 -6 4 -11 13 -11 21 0 16 -48 29 -63 17
-7 -5 -27 -7 -44 -5 -24 4 -33 11 -33 24 0 11 -5 19 -10 19 -6 0 -10 -6 -9
-12 1 -7 1 -20 0 -28 -1 -13 -3 -13 -14 1 -13 17 -77 36 -77 23 0 -4 8 -13 18
-20 9 -7 12 -14 5 -14 -6 0 -15 4 -18 10 -3 5 -10 10 -16 10 -19 0 -8 -22 27
-56 24 -22 31 -34 21 -34 -8 0 -27 14 -42 32 -35 41 -66 57 -92 47 -12 -4 -31
-2 -48 7 -32 16 -65 18 -65 4 0 -5 -9 -10 -20 -10 -20 0 -20 -1 -3 -27 9 -16
26 -36 37 -45 11 -9 18 -20 14 -23 -9 -9 -48 13 -48 28 0 7 -9 18 -20 25 -12
7 -18 16 -15 21 8 15 -24 36 -37 23 -7 -7 -4 -14 11 -24 11 -7 21 -18 21 -24
0 -6 8 -18 19 -28 12 -11 16 -25 13 -41 -6 -31 -22 -33 -22 -2 0 12 -14 38
-30 57 -28 32 -32 33 -41 17 -8 -14 -14 -16 -25 -6 -21 17 -17 31 7 24 17 -6
20 -3 17 12 -2 10 -9 18 -15 18 -7 0 -18 6 -25 12 -20 21 -28 15 -18 -13 15
-38 12 -42 -11 -14 -20 24 -21 24 -35 5 -8 -10 -14 -14 -14 -9 0 5 -9 10 -20
11 -24 2 -25 -10 -4 -42 22 -33 11 -31 -23 4 -35 37 -73 50 -73 25 0 -16 -1
-16 -20 1 -11 10 -20 14 -20 9 0 -5 -5 -2 -10 6 -8 12 -10 12 -10 1 0 -7 16
-29 36 -48 34 -32 42 -61 10 -34 -8 7 -20 10 -26 6 -6 -3 -10 3 -10 15 0 31
-40 61 -64 48 -13 -7 -16 -7 -12 1 5 7 1 9 -8 5 -9 -3 -16 -10 -16 -15 0 -5
-4 -9 -10 -9 -5 0 -10 9 -10 20 0 11 -4 20 -10 20 -5 0 -10 -11 -10 -25 0 -14
-5 -25 -11 -25 -6 0 -8 9 -4 21 6 18 4 20 -14 14 -12 -4 -21 -2 -21 4 0 6 -4
11 -10 11 -5 0 -10 -7 -10 -15 0 -8 4 -15 10 -15 5 0 7 -6 4 -14 -3 -8 3 -19
15 -26 12 -6 21 -17 21 -25 0 -21 -15 -18 -26 5 -8 18 -11 19 -36 6 -33 -18
-36 -4 -7 25 17 17 19 23 8 30 -10 6 -20 1 -32 -14 l-18 -22 6 23 c4 15 1 24
-9 28 -9 3 -16 12 -16 20 0 8 -4 14 -10 14 -5 0 -10 -9 -10 -20 0 -21 -15 -27
-25 -10 -4 7 -13 6 -27 -1 -14 -7 -23 -8 -30 -1 -7 7 -19 7 -33 2 -30 -11 -37
-3 -29 37 7 38 -4 42 -30 12 -15 -18 -15 -23 -5 -30 11 -6 11 -11 1 -21 -14
-14 -26 -4 -36 28 -5 16 -2 23 14 27 23 6 27 35 5 43 -17 7 -19 22 -7 42 6 9
15 10 33 3 13 -5 18 -10 12 -10 -22 -1 -14 -31 7 -31 31 0 24 32 -14 63 -40
31 -46 33 -46 11 0 -11 -6 -14 -20 -9 -24 8 -26 -7 -5 -25 10 -8 12 -17 7 -22
-10 -10 -62 32 -62 50 0 7 -11 19 -25 28 -14 9 -25 25 -25 36 0 14 -5 18 -15
14 -9 -3 -18 1 -21 9 -4 8 -15 15 -25 15 -14 0 -19 7 -19 26 0 16 -5 24 -12
22 -19 -7 -21 -43 -3 -58 8 -7 15 -22 15 -33 0 -11 7 -29 17 -39 15 -17 15
-18 -2 -18 -11 0 -15 -5 -12 -15 4 -8 1 -17 -5 -21 -7 -4 -8 -3 -4 4 4 7 1 12
-8 12 -9 0 -16 5 -16 10 0 6 7 10 15 10 19 0 19 7 0 27 -9 8 -13 23 -10 33 4
14 -3 23 -30 36 -34 16 -37 16 -56 -1 -23 -21 -41 -10 -46 27 -2 18 -1 20 7 8
5 -8 10 -10 10 -5 0 6 5 3 10 -5 8 -12 10 -11 10 6 0 11 -9 29 -20 39 -20 18
-21 18 -14 0 5 -12 4 -16 -3 -12 -16 10 -43 -3 -43 -20 0 -8 4 -12 9 -9 5 4 8
-5 7 -18 -2 -15 1 -23 9 -20 6 3 17 -1 23 -8 8 -10 3 -13 -21 -12 -20 1 -32 6
-32 15 0 8 -4 17 -10 21 -5 4 -10 22 -10 40 0 24 -5 34 -18 36 -17 4 -18 2 -3
-20 15 -24 13 -38 -6 -38 -5 0 -6 4 -3 10 3 5 1 10 -5 10 -7 0 -9 -7 -6 -16 4
-9 4 -25 0 -36 -4 -15 -9 -17 -20 -7 -7 6 -11 16 -7 23 12 19 14 56 3 56 -11
0 -14 -13 -10 -44 1 -10 -2 -16 -7 -13 -14 9 -36 -10 -28 -23 6 -9 9 -9 15 0
6 9 13 4 24 -18 8 -16 21 -32 28 -34 13 -5 2 -28 -13 -28 -5 0 -12 8 -16 18
-14 39 -24 42 -47 15 -20 -22 -25 -24 -45 -14 -14 8 -20 18 -17 28 3 8 6 19 6
24 0 6 5 7 11 3 6 -3 9 -15 6 -25 -6 -22 9 -25 29 -5 18 19 18 26 -1 26 -23 0
-18 22 11 45 17 14 23 26 19 38 -11 26 -25 20 -26 -10 0 -16 -3 -22 -6 -15 -7
18 -20 15 -26 -8 -3 -11 -11 -20 -17 -20 -8 0 -10 8 -6 23 11 38 16 73 10 57
-4 -8 -12 -18 -17 -22 -14 -9 -18 -60 -6 -74 17 -21 -7 -25 -26 -4 -15 16 -16
22 -5 35 20 24 -3 44 -30 27 -12 -7 -21 -8 -25 -2 -3 6 -13 10 -21 10 -10 0
-13 -7 -8 -25 7 -29 -12 -35 -21 -6 -8 26 -51 36 -71 17 -13 -13 -12 -16 3
-25 10 -6 15 -11 10 -11 -22 -1 -43 25 -39 46 5 28 -6 31 -23 7 -19 -26 -48
-24 -77 4 -23 22 -28 24 -28 10 0 -10 -7 -20 -15 -23 -8 -4 -15 -10 -15 -16 0
-19 -26 -34 -62 -35 -31 -1 -38 2 -38 18 0 17 5 19 35 13 28 -5 35 -3 35 10 0
9 -5 16 -12 16 -6 0 -20 7 -30 17 -16 14 -18 14 -18 1 0 -9 -7 -18 -15 -22
-17 -6 -20 -41 -5 -51 5 -3 7 -11 4 -18 -2 -7 9 -27 25 -45 l30 -32 -32 0
c-29 0 -32 -3 -33 -30 -1 -34 10 -39 25 -12 10 16 12 16 26 -2 15 -20 15 -20
30 0 12 16 14 16 15 3 0 -25 -28 -45 -42 -31 -18 18 -31 14 -25 -7 3 -14 1
-18 -9 -14 -16 6 -32 -26 -17 -36 43 -29 56 -42 49 -48 -4 -4 -10 -3 -14 3
-10 16 -52 24 -53 11 0 -7 -2 -23 -5 -36 -4 -20 -2 -22 10 -11 9 6 20 9 26 5
18 -11 11 -25 -15 -25 -14 0 -25 -5 -25 -12 0 -6 3 -8 7 -5 10 10 32 -13 27
-28 -3 -7 -1 -16 5 -20 16 -9 13 -25 -4 -25 -8 0 -20 9 -27 20 -11 17 -24 20
-90 20 -71 0 -78 -2 -78 -20 0 -38 -19 -20 -23 23 -2 28 -5 17 -7 -38 -2 -44
-5 -91 -6 -105 -1 -14 -2 -60 -3 -104 l-1 -78 -45 4 -44 3 -4 -40 c-2 -22 -4
-3 -5 43 l-2 82 -55 0 -55 0 0 39 c0 21 -3 51 -6 67 -5 28 -7 29 -55 26 l-49
-4 0 41 c0 38 2 41 28 42 l27 1 -30 7 c-28 6 -30 9 -30 56 l0 50 -47 -3 -47
-4 -3 44 c-3 43 -3 43 -38 40 -19 -2 -42 -10 -50 -18 -12 -12 -11 -14 13 -14
16 0 26 -4 23 -9 -4 -5 3 -7 14 -4 22 6 30 -22 8 -28 -7 -2 -95 -3 -195 -1
l-183 3 0 50 0 49 -85 0 -85 0 0 155 0 155 44 0 44 0 6 45 7 45 44 0 44 0 3
43 c3 41 4 42 40 45 36 3 37 4 40 50 l3 47 202 3 202 2 3 -52 3 -53 53 -3 52
-3 0 -57 0 -57 45 3 c30 3 45 9 45 18 0 8 5 14 10 14 6 0 9 28 8 68 -1 64 -1
65 -8 22 -6 -38 -8 -41 -15 -22 -4 12 -11 22 -16 22 -5 0 -9 16 -9 37 0 20 -3
34 -6 30 -4 -3 -14 3 -23 14 -16 20 -17 20 -16 -13 3 -64 4 -70 20 -64 11 4
15 -1 15 -18 0 -14 5 -26 11 -28 13 -4 1 -38 -14 -38 -6 0 -7 3 -4 6 4 4 -3
16 -16 26 l-22 20 -3 749 -2 749 50 0 50 0 0 55 0 55 333 2 c257 2 332 6 333
16 1 6 2 152 3 322 l1 310 65 0 65 0 0 -325 0 -325 390 0 390 0 -2 228 -3 227
-40 0 -40 0 -3 53 c-3 51 -4 52 -35 52 -24 0 -28 3 -17 10 10 7 11 10 2 10 -7
0 -15 -7 -18 -15 -4 -8 -12 -15 -20 -15 -11 0 -14 22 -14 105 l0 105 -80 0
-80 0 0 333 c0 184 3 337 7 340 9 10 85 8 101 -2z m-538 -3297 c0 -8 -4 -12
-10 -9 -5 3 -10 -1 -10 -9 0 -9 -9 -16 -20 -16 -26 0 -25 14 3 33 28 20 37 21
37 1z m-286 -9 c3 -8 -1 -18 -8 -22 -7 -5 -18 -17 -24 -28 -10 -17 -11 -14 -9
22 1 32 6 43 18 43 9 0 19 -7 23 -15z m83 -2 c2 -10 19 -29 38 -43 18 -14 31
-28 28 -32 -2 -5 3 -8 11 -8 9 0 16 -2 16 -4 0 -2 3 -11 6 -20 4 -11 1 -16
-10 -16 -9 0 -16 7 -16 15 0 8 -7 15 -15 15 -8 0 -14 6 -12 12 1 7 -8 14 -20
16 -15 2 -23 10 -23 24 0 14 -5 18 -15 15 -18 -7 -27 6 -19 27 8 21 25 20 31
-1z m107 -28 c3 -8 -5 -15 -20 -18 -20 -3 -24 0 -24 18 0 18 4 22 19 18 11 -3
22 -11 25 -18z m-154 -12 c0 -9 -8 -25 -17 -35 -15 -17 -15 -20 -3 -28 12 -8
24 -50 14 -50 -17 0 -34 16 -34 32 0 14 -5 18 -15 14 -8 -3 -15 -1 -15 4 0 6
7 10 16 10 11 0 15 6 11 19 -3 12 1 22 9 25 8 3 14 13 14 21 0 9 5 13 10 10 6
-3 10 -13 10 -22z m204 -26 c20 -8 21 -27 1 -27 -8 0 -15 7 -15 15 0 8 -4 15
-10 15 -5 0 -10 10 -9 23 0 22 0 22 9 1 4 -12 15 -24 24 -27z m286 7 c5 -13
17 -24 25 -24 9 0 13 5 10 10 -10 17 4 11 24 -9 19 -19 18 -19 -12 -25 -19 -4
-33 -2 -35 4 -2 6 -10 16 -17 23 -7 7 -16 23 -20 36 -10 32 13 18 25 -15z
m140 16 c0 -11 -4 -20 -10 -20 -5 0 -10 9 -10 20 0 11 5 20 10 20 6 0 10 -9
10 -20z m-786 -5 c3 -9 0 -15 -9 -15 -8 0 -15 7 -15 15 0 8 4 15 9 15 5 0 11
-7 15 -15z m59 -1 c3 -3 0 -15 -6 -26 -10 -16 -9 -22 6 -32 20 -15 22 -26 5
-26 -21 1 -50 48 -43 70 6 19 25 26 38 14z m341 -10 c4 -10 1 -14 -6 -12 -15
5 -23 28 -10 28 5 0 13 -7 16 -16z m496 6 c0 -5 -4 -10 -10 -10 -5 0 -10 5
-10 10 0 6 5 10 10 10 6 0 10 -4 10 -10z m-704 -27 c-3 -8 -6 -17 -6 -19 0 -2
-4 -4 -10 -4 -5 0 -10 11 -10 25 0 18 4 23 16 18 8 -3 13 -12 10 -20z m595
-23 c5 0 9 7 9 16 0 21 24 12 28 -11 3 -11 0 -15 -7 -11 -14 9 -41 -17 -41
-38 0 -9 -5 -16 -11 -16 -6 0 -8 11 -4 29 4 21 2 30 -9 34 -9 4 -16 17 -16 29
1 22 1 22 21 -4 11 -16 25 -28 30 -28z m-351 15 c0 -14 -4 -25 -10 -25 -5 0
-10 11 -10 25 0 14 5 25 10 25 6 0 10 -11 10 -25z m500 -1 c0 -8 5 -14 10 -14
6 0 10 -7 10 -15 0 -8 -6 -15 -13 -15 -17 0 -42 45 -32 59 8 14 25 4 25 -15z
m-533 -41 c-3 -3 -11 -2 -17 2 -8 5 -7 11 2 22 12 15 13 14 16 -1 2 -10 1 -20
-1 -23z m-167 12 c0 -8 9 -15 20 -15 21 0 27 -24 9 -36 -8 -4 -8 -9 0 -17 18
-18 12 -28 -9 -17 -15 8 -19 17 -14 34 6 24 -13 47 -25 29 -3 -5 -14 -13 -25
-16 -15 -6 -16 -10 -6 -22 10 -12 10 -15 -3 -15 -20 0 -35 22 -19 28 7 2 12 8
12 13 0 13 33 47 48 48 6 1 12 -6 12 -14z m126 -22 c-10 -10 -19 5 -10 18 6
11 8 11 12 0 2 -7 1 -15 -2 -18z m114 12 c0 -8 7 -15 15 -15 9 0 12 -6 9 -15
-4 -8 -10 -15 -15 -15 -5 0 -9 7 -9 15 0 8 -7 15 -15 15 -8 0 -15 7 -15 15 0
8 7 15 15 15 8 0 15 -7 15 -15z m50 3 c0 -9 3 -9 12 0 16 16 28 15 28 -2 0
-19 -21 -26 -42 -14 -19 9 -24 28 -8 28 6 0 10 -5 10 -12z m110 3 c0 -6 -4
-13 -10 -16 -5 -3 -10 1 -10 9 0 9 5 16 10 16 6 0 10 -4 10 -9z m23 -20 c3
-13 -1 -21 -14 -24 -11 -3 -17 -2 -16 1 2 4 7 15 10 25 8 22 13 22 20 -2z m67
-6 c0 5 5 4 11 -2 6 -6 8 -16 4 -23 -9 -15 -35 6 -35 29 0 14 2 14 10 1 5 -8
10 -11 10 -5z m270 -6 c0 -11 -4 -17 -10 -14 -5 3 -10 13 -10 21 0 8 5 14 10
14 6 0 10 -9 10 -21z m-895 1 c-3 -5 -10 -10 -16 -10 -5 0 -9 5 -9 10 0 6 7
10 16 10 8 0 12 -4 9 -10z m325 -30 c-8 -15 -15 -19 -22 -12 -6 6 -5 17 3 31
18 27 35 10 19 -19z m165 30 c-3 -5 -13 -10 -21 -10 -8 0 -12 5 -9 10 3 6 13
10 21 10 8 0 12 -4 9 -10z m245 3 c-1 -17 -29 -45 -39 -38 -16 9 -13 25 4 25
8 0 15 5 15 10 0 6 5 10 10 10 6 0 10 -3 10 -7z m74 -9 c9 -22 8 -24 -9 -24
-8 0 -15 9 -15 20 0 24 15 27 24 4z m-563 -7 c-6 -8 -8 -17 -4 -20 3 -4 -4 -7
-16 -7 -19 0 -20 3 -11 20 6 11 18 20 27 20 12 0 13 -3 4 -13z m629 -13 c0 -8
-4 -12 -10 -9 -5 3 -10 13 -10 21 0 8 5 12 10 9 6 -3 10 -13 10 -21z m-590 0
c0 -8 -5 -12 -10 -9 -6 4 -8 11 -5 16 9 14 15 11 15 -7z m195 -55 l23 -26 -24
0 c-19 0 -23 3 -19 18 5 13 1 19 -10 19 -8 0 -20 12 -25 26 -15 38 -12 42 11
14 11 -14 31 -37 44 -51z m-97 42 c3 -8 -1 -12 -9 -9 -7 2 -15 10 -17 17 -3 8
1 12 9 9 7 -2 15 -10 17 -17z m142 -2 c0 -5 -9 -9 -20 -9 -19 0 -26 11 -14 23
8 8 34 -3 34 -14z m405 11 c3 -5 -1 -10 -9 -10 -9 0 -16 -5 -16 -12 0 -6 -3
-9 -6 -5 -9 8 3 37 15 37 5 0 13 -4 16 -10z m-965 -20 c0 -13 -5 -18 -14 -14
-8 3 -12 12 -9 20 8 21 23 17 23 -6z m88 -3 c3 -16 1 -17 -17 -7 -25 13 -28
33 -4 28 10 -2 19 -11 21 -21z m558 12 c3 -6 2 -15 -4 -21 -7 -7 -14 -3 -21
11 -10 17 -9 21 3 21 8 0 18 -5 22 -11z m62 -16 c-4 -22 -22 -20 -26 1 -2 10
3 16 13 16 10 0 15 -7 13 -17z m100 0 c-2 -10 -11 -19 -20 -21 -12 -2 -15 2
-11 17 7 25 36 28 31 4z m85 -3 c17 -21 22 -40 10 -40 -12 0 -43 33 -43 47 0
19 13 16 33 -7z m-743 0 c0 -5 -2 -10 -4 -10 -3 0 -8 5 -11 10 -3 6 -1 10 4
10 6 0 11 -4 11 -10z m247 -23 c-6 -20 -27 -19 -27 2 0 14 5 19 15 14 9 -3 14
-10 12 -16z m-434 -4 c11 -7 8 -20 -6 -26 -7 -3 -22 6 -34 19 l-21 24 26 -6
c15 -4 30 -9 35 -11z m364 -8 c-4 -8 -14 -15 -23 -15 -16 0 -16 2 1 20 20 22
31 20 22 -5z m283 18 c-1 -14 -27 -43 -39 -43 -6 0 -11 7 -11 15 0 8 7 15 15
15 8 0 15 5 15 10 0 6 5 10 10 10 6 0 10 -3 10 -7z m362 -13 c16 -18 16 -20
-14 -35 -25 -12 -33 -13 -40 -3 -4 8 -2 14 7 16 8 2 15 12 15 23 0 24 11 24
32 -1z m-932 -11 c0 -5 -7 -9 -15 -9 -15 0 -20 12 -9 23 8 8 24 -1 24 -14z
m70 11 c0 -5 -4 -10 -10 -10 -5 0 -10 5 -10 10 0 6 5 10 10 10 6 0 10 -4 10
-10z m340 -4 c0 -7 -9 -16 -20 -19 -23 -6 -26 3 -8 21 16 16 28 15 28 -2z
m226 -15 c-8 -13 -36 -15 -36 -3 0 4 5 13 12 20 14 14 34 0 24 -17z m171 12
c4 -11 -26 -27 -35 -19 -2 3 -2 12 2 21 6 18 27 16 33 -2z m-697 -12 c0 -10
-6 -23 -12 -29 -10 -8 -13 -3 -14 19 -1 18 4 29 12 29 8 0 14 -8 14 -19z m100
4 c0 -8 -9 -15 -20 -15 -13 0 -18 5 -14 15 4 8 12 15 20 15 8 0 14 -7 14 -15z
m516 4 c10 -16 -25 -21 -40 -6 -13 13 -12 15 10 15 13 0 27 -4 30 -9z m-686
-19 c0 -11 -4 -20 -9 -20 -14 0 -23 18 -16 30 10 17 25 11 25 -10z m288 2 c2
-7 -3 -12 -12 -12 -9 0 -16 7 -16 16 0 17 22 14 28 -4z m-180 -11 c10 -6 10
-10 -3 -21 -8 -7 -15 -11 -16 -9 -8 42 -6 46 19 30z m102 -12 c0 -6 -4 -7 -10
-4 -5 3 -10 11 -10 16 0 6 5 7 10 4 6 -3 10 -11 10 -16z m195 2 c-4 -13 0 -23
12 -30 10 -5 14 -13 10 -18 -5 -4 -14 0 -21 10 -7 9 -18 17 -24 17 -5 0 -8 9
-5 20 3 11 12 20 20 20 10 0 12 -6 8 -19z m395 4 c0 -8 -7 -15 -15 -15 -8 0
-15 7 -15 15 0 8 7 15 15 15 8 0 15 -7 15 -15z m1920 0 c0 -8 -2 -15 -4 -15
-2 0 -11 -3 -20 -6 -9 -3 -16 -1 -16 6 0 6 5 8 10 5 6 -3 10 1 10 9 0 9 5 16
10 16 6 0 10 -7 10 -15z m-2800 -5 c0 -5 -4 -10 -9 -10 -6 0 -13 5 -16 10 -3
6 1 10 9 10 9 0 16 -4 16 -10z m790 -5 c0 -8 -4 -15 -10 -15 -5 0 -10 7 -10
15 0 8 5 15 10 15 6 0 10 -7 10 -15z m1196 -2 c25 -33 14 -44 -20 -18 -10 7
-15 18 -11 24 9 15 16 14 31 -6z m104 -9 c0 -14 -12 -19 -23 -8 -9 9 4 35 14
28 5 -3 9 -12 9 -20z m146 -27 c14 -13 15 -20 6 -29 -9 -9 -13 -7 -19 8 -4 10
-13 25 -20 32 -7 7 -13 21 -13 30 1 14 3 14 15 -3 8 -11 22 -28 31 -38z
m-1903 17 c-4 -11 -8 -12 -20 -3 -11 10 -11 14 -1 20 17 10 28 2 21 -17z m220
12 c6 -16 -2 -28 -14 -20 -12 7 -11 34 0 34 5 0 11 -6 14 -14z m638 -9 c-13
-13 -26 -3 -16 12 3 6 11 8 17 5 6 -4 6 -10 -1 -17z m1191 -2 c3 -14 1 -25 -3
-25 -5 0 -9 4 -9 9 0 5 -3 16 -6 25 -3 9 -2 16 4 16 5 0 12 -11 14 -25z m648
10 c0 -8 9 -15 20 -15 23 0 27 -18 6 -26 -17 -7 -59 32 -51 46 9 15 25 12 25
-5z m-2990 -5 c0 -5 -4 -10 -10 -10 -5 0 -10 5 -10 10 0 6 5 10 10 10 6 0 10
-4 10 -10z m400 -11 c0 -5 -4 -9 -10 -9 -5 0 -10 7 -10 16 0 8 5 12 10 9 6 -3
10 -10 10 -16z m205 11 c3 -5 1 -10 -4 -10 -6 0 -11 -7 -11 -15 0 -8 -7 -15
-16 -15 -11 0 -14 5 -10 16 3 9 6 20 6 25 0 12 27 12 35 -1z m74 -6 c3 -3 -2
-11 -10 -19 -12 -12 -16 -11 -26 11 -11 23 -10 24 10 18 12 -3 24 -8 26 -10z
m1031 1 c0 -8 -4 -15 -9 -15 -13 0 -22 16 -14 24 11 11 23 6 23 -9z m290 5 c0
-5 -7 -10 -16 -10 -8 0 -12 5 -9 10 3 6 10 10 16 10 5 0 9 -4 9 -10z m247 -37
c-11 -10 -27 8 -27 30 l0 21 16 -22 c9 -13 14 -26 11 -29z m613 30 c20 -17 27
-43 12 -43 -4 0 -16 14 -25 30 -20 34 -16 38 13 13z m-2930 -14 c0 -11 -27
-12 -34 0 -3 4 -3 11 0 14 8 8 34 -3 34 -14z m165 11 c3 -5 2 -10 -4 -10 -5 0
-13 5 -16 10 -3 6 -2 10 4 10 5 0 13 -4 16 -10z m695 -6 c0 -17 -22 -14 -28 4
-2 7 3 12 12 12 9 0 16 -7 16 -16z m84 -15 c-5 -9 -34 -13 -34 -5 0 2 3 12 6
20 5 13 9 14 20 5 8 -6 11 -15 8 -20z m74 19 c-3 -7 -11 -13 -18 -13 -7 0 -15
6 -17 13 -3 7 4 12 17 12 13 0 20 -5 18 -12z m262 3 c0 -5 -7 -14 -15 -21 -13
-10 -15 -9 -15 9 0 12 6 21 15 21 8 0 15 -4 15 -9z m1602 -8 c10 -9 18 -20 18
-25 0 -14 -22 -9 -36 10 -25 33 -13 44 18 15z m-2844 -11 c2 -7 -2 -10 -12 -6
-9 3 -16 11 -16 16 0 13 23 5 28 -10z m750 6 c-6 -18 -28 -21 -28 -4 0 9 7 16
16 16 9 0 14 -5 12 -12z m302 2 c0 -5 -4 -10 -10 -10 -5 0 -10 5 -10 10 0 6 5
10 10 10 6 0 10 -4 10 -10z m90 -11 c0 -5 -10 -9 -21 -9 -18 0 -19 2 -9 15 12
15 30 12 30 -6z m358 1 c7 -11 9 -20 4 -20 -10 0 -32 22 -32 32 0 15 15 8 28
-12z m118 5 c4 -8 13 -15 22 -15 8 0 13 -2 10 -5 -10 -11 -58 7 -58 21 0 19
19 18 26 -1z m715 4 c21 -11 17 -29 -8 -29 -9 0 -13 6 -10 14 3 8 1 17 -6 20
-7 2 -8 5 -4 5 5 1 17 -4 28 -10z m288 -14 c13 -14 20 -29 17 -33 -4 -4 -13 1
-20 11 -12 16 -46 24 -46 11 0 -3 16 -24 35 -47 19 -22 33 -43 30 -45 -3 -3
-14 7 -26 23 -12 15 -32 36 -43 47 -15 14 -17 22 -8 25 6 3 12 11 12 19 0 22
22 16 49 -11z m-2529 0 c0 -8 -4 -15 -9 -15 -13 0 -22 16 -14 24 11 11 23 6
23 -9z m1320 -6 c0 -5 -4 -9 -10 -9 -5 0 -10 7 -10 16 0 8 5 12 10 9 6 -3 10
-10 10 -16z m50 0 c0 -11 -27 -12 -34 0 -3 4 -3 11 0 14 8 8 34 -3 34 -14z
m-1280 -19 c-9 -17 -14 -19 -26 -10 -14 13 -9 34 6 25 5 -3 12 0 15 6 13 19
17 1 5 -21z m100 20 c0 -5 -9 -10 -19 -10 -11 0 -23 5 -26 10 -4 6 5 10 19 10
14 0 26 -4 26 -10z m288 -15 c-3 -3 -9 2 -12 12 -6 14 -5 15 5 6 7 -7 10 -15
7 -18z m1150 1 c-1 -6 10 -24 25 -40 28 -30 34 -46 18 -46 -6 0 -18 14 -28 30
-9 17 -23 30 -30 30 -7 0 -13 11 -13 25 0 18 4 23 15 19 9 -4 14 -11 13 -18z
m52 14 c0 -5 -4 -10 -10 -10 -5 0 -10 5 -10 10 0 6 5 10 10 10 6 0 10 -4 10
-10z m290 -10 c0 -4 -16 -8 -35 -8 -41 0 -47 15 -7 20 30 4 42 1 42 -12z m62
5 c0 -5 -5 -11 -11 -13 -6 -2 -11 4 -11 13 0 9 5 15 11 13 6 -2 11 -8 11 -13z
m313 -23 c-11 -11 -34 8 -28 24 6 15 7 15 20 -1 7 -10 11 -21 8 -23z m59 -3
c-9 -10 -20 -16 -23 -13 -3 4 0 9 6 11 10 3 10 10 2 25 -10 18 -9 19 11 8 21
-11 21 -12 4 -31z m309 35 c9 -10 -15 -54 -30 -54 -7 0 -13 5 -13 10 0 6 5 10
11 10 6 0 9 6 6 14 -8 21 11 35 26 20z m-2863 -36 c0 -6 -7 -5 -15 2 -8 7 -15
17 -15 22 0 6 7 5 15 -2 8 -7 15 -17 15 -22z m450 12 c0 -11 -7 -20 -15 -20
-8 0 -15 9 -15 20 0 11 7 20 15 20 8 0 15 -9 15 -20z m74 -11 c-10 -16 -24 -9
-24 12 0 18 2 19 15 9 8 -7 12 -16 9 -21z m56 16 c0 -8 -4 -15 -10 -15 -5 0
-10 7 -10 15 0 8 5 15 10 15 6 0 10 -7 10 -15z m264 0 c3 -8 1 -15 -4 -15 -6
0 -10 7 -10 15 0 8 2 15 4 15 2 0 6 -7 10 -15z m406 -9 c0 -8 9 -16 20 -19 12
-3 20 -14 20 -26 0 -29 -18 -26 -32 4 -12 28 -19 30 -35 14 -12 -12 -33 -4
-33 13 0 6 9 8 20 5 15 -4 20 0 20 15 0 10 5 16 10 13 6 -3 10 -12 10 -19z
m640 14 c0 -5 -4 -10 -10 -10 -5 0 -10 5 -10 10 0 6 5 10 10 10 6 0 10 -4 10
-10z m460 -21 c0 -5 -7 -9 -15 -9 -9 0 -12 6 -9 15 6 15 24 11 24 -6z m102 9
c2 -6 -3 -19 -11 -27 -15 -15 -18 -14 -33 2 -22 21 -24 34 -3 17 12 -10 16 -9
21 4 7 19 21 21 26 4z m-1704 -17 c3 -8 -1 -12 -9 -9 -7 2 -15 10 -17 17 -3 8
1 12 9 9 7 -2 15 -10 17 -17z m172 -16 c-11 -13 -10 -18 6 -29 10 -8 15 -18
11 -23 -5 -4 -14 0 -21 10 -7 9 -18 17 -25 17 -6 0 -11 7 -11 15 0 8 -4 15
-10 15 -5 0 -10 5 -10 11 0 8 5 7 16 -2 13 -11 17 -10 26 5 7 13 13 15 21 7 7
-7 6 -15 -3 -26z m64 29 c20 -8 21 -34 2 -34 -7 0 -16 9 -19 20 -6 22 -5 23
17 14z m92 -5 c3 -6 2 -15 -2 -19 -12 -12 -38 5 -30 19 9 14 23 14 32 0z m44
-10 c0 -6 -4 -7 -10 -4 -5 3 -10 11 -10 16 0 6 5 7 10 4 6 -3 10 -11 10 -16z
m198 3 c2 -7 -3 -12 -12 -12 -9 0 -16 7 -16 16 0 17 22 14 28 -4z m1286 -3
c-6 -11 -24 -2 -24 11 0 5 7 7 15 4 8 -4 12 -10 9 -15z m177 -2 c-13 -13 -26
-3 -16 12 3 6 11 8 17 5 6 -4 6 -10 -1 -17z m212 9 c4 -9 -3 -16 -18 -19 -30
-5 -38 2 -24 20 15 17 35 17 42 -1z m-2935 -14 c2 -7 -3 -12 -12 -12 -9 0 -16
7 -16 16 0 17 22 14 28 -4z m53 3 c1 -17 -18 -17 -25 0 -4 11 -1 15 10 13 8
-2 15 -7 15 -13z m252 0 c1 -5 -6 -11 -15 -13 -11 -2 -18 3 -18 13 0 17 30 18
33 0z m343 -11 c28 -29 30 -44 8 -44 -11 0 -15 6 -11 20 4 15 -1 22 -19 26
-13 3 -24 10 -24 15 0 17 23 9 46 -17z m457 -10 c-7 -19 -23 -7 -23 18 0 17 3
18 14 8 8 -6 12 -18 9 -26z m217 21 c0 -8 -7 -15 -15 -15 -16 0 -20 12 -8 23
11 12 23 8 23 -8z m107 -32 c9 -18 8 -23 -2 -23 -7 0 -15 9 -18 20 -3 11 -12
20 -21 20 -9 0 -16 6 -16 14 0 21 44 -2 57 -31z m153 43 c0 -3 -4 -8 -10 -11
-5 -3 -10 -1 -10 4 0 6 5 11 10 11 6 0 10 -2 10 -4z m50 -12 c0 -8 -4 -12 -10
-9 -5 3 -10 10 -10 16 0 5 5 9 10 9 6 0 10 -7 10 -16z m50 1 c0 -8 -4 -15 -9
-15 -13 0 -22 16 -14 24 11 11 23 6 23 -9z m120 7 c0 -13 -12 -22 -22 -16 -10
6 -1 24 13 24 5 0 9 -4 9 -8z m208 -4 c19 -19 14 -30 -8 -18 -11 6 -20 15 -20
20 0 14 14 12 28 -2z m73 -3 c-1 -15 -24 -12 -29 3 -3 9 2 13 12 10 10 -1 17
-7 17 -13z m49 -12 c0 -13 -3 -13 -15 -3 -8 7 -15 16 -15 21 0 5 7 6 15 3 8
-4 15 -13 15 -21z m114 10 c7 -16 -6 -17 -23 0 -11 10 -14 10 -18 0 -5 -14
-43 -18 -43 -5 0 14 7 17 44 18 20 0 37 -5 40 -13z m627 -33 c5 0 9 -5 9 -10
0 -6 -9 -5 -22 2 -13 7 -24 14 -26 15 -2 0 3 11 10 22 13 22 13 22 16 -4 2
-14 8 -25 13 -25z m-2739 25 c0 -5 -5 -11 -11 -13 -6 -2 -11 4 -11 13 0 9 5
15 11 13 6 -2 11 -8 11 -13z m298 0 c10 -12 10 -15 -4 -15 -9 0 -16 -8 -16
-18 0 -10 -7 -19 -15 -19 -11 0 -12 4 -4 14 6 7 9 19 6 27 -11 27 13 35 33 11z
m90 5 c0 -5 -7 -10 -15 -10 -8 0 -15 5 -15 10 0 6 7 10 15 10 8 0 15 -4 15
-10z m60 -5 c0 -8 -4 -15 -9 -15 -13 0 -22 16 -14 24 11 11 23 6 23 -9z m185
5 c3 -5 -3 -10 -14 -10 -12 0 -21 5 -21 10 0 6 6 10 14 10 8 0 18 -4 21 -10z
m715 -5 c-12 -15 -30 -12 -30 6 0 5 10 9 21 9 18 0 19 -2 9 -15z m60 -5 c0
-11 -4 -20 -9 -20 -14 0 -23 18 -16 30 10 17 25 11 25 -10z m800 -37 c0 -7 -3
-13 -7 -13 -9 0 -33 48 -33 64 1 15 40 -36 40 -51z m348 26 c9 -14 10 -24 3
-33 -6 -7 -8 -22 -4 -34 3 -14 1 -22 -7 -22 -9 0 -11 12 -7 44 5 34 3 45 -8
50 -8 3 -15 10 -15 15 0 16 24 3 38 -20z m-2748 6 c11 -13 10 -14 -4 -9 -9 3
-16 10 -16 15 0 13 6 11 20 -6z m288 4 c-2 -6 -8 -10 -13 -10 -5 0 -11 4 -13
10 -2 6 4 11 13 11 9 0 15 -5 13 -11z m1635 -23 c20 -18 34 -36 31 -39 -6 -6
-74 54 -74 65 0 13 5 10 43 -26z m593 17 c16 -22 17 -33 4 -33 -5 0 -10 7 -10
15 0 8 -7 15 -15 15 -8 0 -15 5 -15 10 0 16 22 12 36 -7z m-2116 -23 c-21 -13
-50 -12 -50 1 0 6 6 9 14 6 8 -3 17 1 21 10 4 13 8 14 18 4 9 -9 9 -14 -3 -21z
m2240 -6 c0 -8 -4 -14 -10 -14 -5 0 -10 4 -10 9 0 5 -3 18 -7 28 -6 16 -5 16
10 4 9 -7 17 -20 17 -27z m390 -1 c0 -7 -6 -10 -14 -7 -8 3 -17 1 -20 -5 -7
-12 -36 -4 -36 10 0 5 11 9 25 9 17 0 25 6 25 18 0 14 2 15 10 2 5 -8 10 -20
10 -27z m-2773 -29 c-3 -3 -16 6 -31 19 -14 13 -23 27 -19 31 4 4 18 -5 31
-19 13 -15 22 -29 19 -31z m278 26 c-6 -9 -9 -9 -16 1 -10 17 0 34 13 21 6 -6
7 -16 3 -22z m578 0 c5 -18 3 -19 -11 -8 -9 7 -19 13 -21 15 -1 1 0 7 4 12 9
15 21 6 28 -19z m237 22 c0 -5 -9 -17 -20 -27 -16 -14 -20 -15 -20 -4 0 16 19
39 32 39 4 0 8 -4 8 -8z m70 -7 c0 -8 -7 -15 -15 -15 -8 0 -15 -8 -15 -17 0
-12 -3 -14 -11 -6 -8 8 -7 17 3 32 15 24 38 28 38 6z m344 -6 c-8 -14 -24 -10
-24 6 0 9 6 12 15 9 8 -4 12 -10 9 -15z m566 0 c0 -11 -4 -17 -10 -14 -5 3
-10 13 -10 21 0 8 5 14 10 14 6 0 10 -9 10 -21z m250 5 c0 -8 -4 -12 -10 -9
-5 3 -10 10 -10 16 0 5 5 9 10 9 6 0 10 -7 10 -16z m240 6 c0 -5 -4 -10 -10
-10 -5 0 -10 5 -10 10 0 6 5 10 10 10 6 0 10 -4 10 -10z m39 -19 c-3 -6 -10
-7 -18 -2 -7 5 -10 14 -6 21 9 14 29 -2 24 -19z m-2759 -31 c0 -19 -18 -10
-24 13 -6 22 -6 22 -22 2 -13 -17 -16 -18 -24 -5 -7 11 -5 16 10 18 11 2 20 8
20 13 0 5 9 0 20 -11 11 -11 20 -24 20 -30z m38 33 c-14 -17 -28 -16 -28 1 0
8 9 14 19 13 15 -1 17 -4 9 -14z m472 2 c0 -8 -4 -15 -10 -15 -5 0 -10 7 -10
15 0 8 5 15 10 15 6 0 10 -7 10 -15z m40 7 c0 -13 -12 -22 -22 -16 -10 6 -1
24 13 24 5 0 9 -4 9 -8z m145 -2 c3 -5 -1 -10 -9 -10 -9 0 -16 5 -16 10 0 6 4
10 9 10 6 0 13 -4 16 -10z m55 0 c0 -5 -4 -10 -10 -10 -5 0 -10 5 -10 10 0 6
5 10 10 10 6 0 10 -4 10 -10z m147 -12 c24 -23 30 -38 13 -38 -5 0 -10 6 -10
14 0 8 -9 18 -20 21 -11 3 -20 11 -20 16 0 15 12 11 37 -13z m43 6 c0 -8 -4
-12 -10 -9 -5 3 -10 10 -10 16 0 5 5 9 10 9 6 0 10 -7 10 -16z m204 7 c3 -5
-1 -11 -9 -15 -9 -3 -15 0 -15 9 0 16 16 20 24 6z m314 -3 c-6 -18 -28 -21
-28 -4 0 9 7 16 16 16 9 0 14 -5 12 -12z m102 2 c0 -5 -4 -10 -10 -10 -5 0
-10 5 -10 10 0 6 5 10 10 10 6 0 10 -4 10 -10z m54 1 c6 -10 -22 -37 -29 -29
-8 7 5 38 15 38 5 0 11 -4 14 -9z m276 -1 c0 -5 -4 -10 -10 -10 -5 0 -10 5
-10 10 0 6 5 10 10 10 6 0 10 -4 10 -10z m72 -7 c10 -9 18 -21 18 -27 0 -6 -5
-3 -11 7 -5 9 -17 17 -24 17 -8 0 -15 5 -15 10 0 15 11 12 32 -7z m76 6 c-2
-6 -8 -10 -13 -10 -5 0 -11 4 -13 10 -2 6 4 11 13 11 9 0 15 -5 13 -11z m72 6
c0 -3 -9 -14 -20 -25 -13 -13 -20 -15 -20 -7 0 7 5 18 12 25 12 12 28 16 28 7z
m73 -9 c6 -15 -1 -26 -15 -26 -4 0 -8 9 -8 20 0 23 15 27 23 6z m217 -36 c0
-5 -4 -10 -10 -10 -5 0 -10 7 -10 15 0 8 -7 15 -15 15 -16 0 -20 12 -8 23 7 8
43 -27 43 -43z m-1330 30 c0 -5 -5 -10 -11 -10 -5 0 -7 5 -4 10 3 6 8 10 11
10 2 0 4 -4 4 -10z m-1173 -14 c-5 -12 -57 -10 -71 4 -5 5 9 9 33 8 27 0 40
-4 38 -12z m334 4 c6 0 8 -4 4 -10 -3 -5 4 -19 17 -32 14 -14 17 -23 10 -26
-7 -2 -12 -11 -12 -20 0 -15 -2 -15 -10 -2 -6 9 -5 17 3 22 9 6 6 14 -10 27
-13 11 -23 24 -23 29 0 6 -3 12 -7 15 -5 2 -2 2 5 0 8 -1 18 -3 23 -3z m499
-11 c0 -5 -4 -9 -10 -9 -5 0 -10 7 -10 16 0 8 5 12 10 9 6 -3 10 -10 10 -16z
m58 3 c6 -18 -15 -14 -22 4 -4 10 -1 14 6 12 6 -2 14 -10 16 -16z m192 -13 c0
-27 -17 -23 -22 5 -4 17 -1 23 9 19 7 -3 13 -14 13 -24z m370 5 c0 -8 -4 -14
-10 -14 -5 0 -10 9 -10 21 0 11 5 17 10 14 6 -3 10 -13 10 -21z m424 17 c7
-10 -22 -37 -30 -28 -9 8 3 37 15 37 5 0 12 -4 15 -9z m1026 -7 c0 -8 -5 -12
-10 -9 -6 4 -8 11 -5 16 9 14 15 11 15 -7z m-2710 -4 c0 -5 -2 -10 -4 -10 -3
0 -8 5 -11 10 -3 6 -1 10 4 10 6 0 11 -4 11 -10z m241 -13 c-1 -4 -3 -7 -6 -7
-3 0 -12 0 -20 0 -8 0 -15 7 -15 15 0 10 6 12 21 7 11 -5 20 -11 20 -15z m79
14 c0 -6 -4 -13 -10 -16 -5 -3 -10 1 -10 9 0 9 5 16 10 16 6 0 10 -4 10 -9z
m187 -17 c-9 -9 -28 6 -21 18 4 6 10 6 17 -1 6 -6 8 -13 4 -17z m60 4 c-3 -8
-6 -5 -6 6 -1 11 2 17 5 13 3 -3 4 -12 1 -19z m841 3 c3 -8 -1 -12 -9 -9 -7 2
-15 10 -17 17 -3 8 1 12 9 9 7 -2 15 -10 17 -17z m192 -7 c0 -8 -4 -14 -10
-14 -5 0 -10 9 -10 21 0 11 5 17 10 14 6 -3 10 -13 10 -21z m590 5 c0 -6 -4
-7 -10 -4 -5 3 -10 11 -10 16 0 6 5 7 10 4 6 -3 10 -11 10 -16z m58 3 c2 -7
-3 -12 -12 -12 -9 0 -16 7 -16 16 0 17 22 14 28 -4z m158 -20 c-18 -16 -19
-16 -12 1 3 10 6 24 6 30 0 8 4 7 12 -1 10 -9 8 -16 -6 -30z m611 16 c-3 -8
-6 -5 -6 6 -1 11 2 17 5 13 3 -3 4 -12 1 -19z m-1992 2 c3 -5 -1 -10 -9 -10
-9 0 -16 5 -16 10 0 6 4 10 9 10 6 0 13 -4 16 -10z m75 -5 c10 -12 10 -15 -4
-15 -9 0 -16 7 -16 15 0 8 2 15 4 15 2 0 9 -7 16 -15z m77 -8 c-6 -20 -27 -19
-27 2 0 14 5 19 15 14 9 -3 14 -10 12 -16z m153 9 c0 -15 -18 -31 -26 -23 -7
7 7 37 17 37 5 0 9 -6 9 -14z m500 4 c0 -5 -4 -10 -9 -10 -6 0 -13 5 -16 10
-3 6 1 10 9 10 9 0 16 -4 16 -10z m800 -10 c24 -24 25 -30 5 -30 -8 0 -19 9
-25 19 -19 37 -10 41 20 11z m125 -1 c-4 -5 -13 -9 -22 -9 -13 0 -13 3 -3 15
13 15 35 11 25 -6z m-2795 -10 c0 -5 -4 -9 -10 -9 -5 0 -10 7 -10 16 0 8 5 12
10 9 6 -3 10 -10 10 -16z m65 11 c3 -5 1 -10 -4 -10 -6 0 -11 5 -11 10 0 6 2
10 4 10 3 0 8 -4 11 -10z m345 0 c0 -5 -2 -10 -4 -10 -3 0 -8 5 -11 10 -3 6
-1 10 4 10 6 0 11 -4 11 -10z m1174 -11 c-3 -5 -10 -7 -15 -3 -5 3 -7 10 -3
15 3 5 10 7 15 3 5 -3 7 -10 3 -15z m616 6 c0 -9 7 -18 15 -21 18 -7 20 -24 4
-24 -14 0 -38 30 -39 48 0 6 5 12 10 12 6 0 10 -7 10 -15z m210 -15 c0 -5 -9
-6 -20 -3 -20 5 -25 15 -13 26 7 8 33 -11 33 -23z m-1710 10 c0 -5 -4 -10 -9
-10 -6 0 -13 5 -16 10 -3 6 1 10 9 10 9 0 16 -4 16 -10z m100 -5 c0 -9 -6 -12
-15 -9 -8 4 -15 10 -15 15 0 5 7 9 15 9 8 0 15 -7 15 -15z m715 5 c3 -6 -1 -7
-9 -4 -18 7 -21 14 -7 14 6 0 13 -4 16 -10z m395 0 c0 -5 -5 -10 -11 -10 -5 0
-7 5 -4 10 3 6 8 10 11 10 2 0 4 -4 4 -10z m80 -1 c0 -5 -2 -9 -4 -9 -2 0 -11
-3 -19 -6 -8 -3 -17 1 -19 8 -4 8 3 14 18 14 13 1 24 -2 24 -7z m90 -3 c0 -9
-7 -12 -21 -9 -16 4 -17 8 -7 14 19 13 28 11 28 -5z m640 4 c0 -5 7 -10 15
-10 8 0 15 -4 15 -10 0 -16 -15 -12 -35 10 -10 11 -13 20 -7 20 7 0 12 -4 12
-10z m165 -20 c0 -13 -7 -25 -15 -27 -11 -3 -11 -2 -3 4 8 6 9 14 3 23 -13 21
-12 32 3 27 6 -2 12 -14 12 -27z m-3657 -209 l2 -221 177 -2 c165 -3 176 -4
160 -20 -9 -9 -17 -21 -17 -27 0 -6 -7 -11 -15 -11 -11 0 -15 -11 -15 -37 l0
-38 328 2 327 1 1 64 1 63 1222 3 1221 2 0 -68 0 -67 340 0 340 0 0 68 0 67
135 0 135 0 2 222 3 223 40 -3 c22 -2 41 -5 41 -5 1 -1 4 -45 5 -97 l4 -95 30
-5 c28 -5 30 -8 28 -48 -2 -42 -2 -42 33 -42 l35 0 -3 -42 -3 -43 38 -3 37 -3
0 -50 0 -49 38 0 39 0 2 -62 2 -63 -693 -5 c-940 -7 -3505 -5 -3968 3 -206 4
-380 7 -387 7 -7 0 -13 23 -15 60 l-3 60 43 0 c40 0 42 1 36 25 -3 14 -3 36 0
50 5 21 12 25 42 25 36 0 37 0 31 35 -7 41 14 69 44 60 17 -6 19 -1 19 35 0
33 4 43 19 47 25 6 31 31 31 129 l0 80 43 -2 42 -2 3 -221z m662 207 c0 -21
-1 -21 -13 -3 -10 13 -16 15 -21 6 -4 -6 -12 -9 -17 -5 -16 9 0 24 27 24 18 0
24 -5 24 -22z m42 -6 c-7 -2 -12 -10 -12 -18 0 -8 -4 -14 -10 -14 -15 0 -12
21 7 42 13 14 19 16 22 7 2 -7 -1 -15 -7 -17z m522 13 c3 -9 0 -15 -9 -15 -8
0 -15 7 -15 15 0 8 4 15 9 15 5 0 11 -7 15 -15z m66 0 c0 -8 -4 -15 -10 -15
-5 0 -10 7 -10 15 0 8 5 15 10 15 6 0 10 -7 10 -15z m70 6 c0 -6 -4 -13 -10
-16 -5 -3 -10 1 -10 9 0 9 5 16 10 16 6 0 10 -4 10 -9z m60 2 c0 -5 -5 -15
-10 -23 -8 -12 -10 -11 -10 8 0 12 5 22 10 22 6 0 10 -3 10 -7z m390 -9 c0 -8
-4 -12 -10 -9 -5 3 -10 10 -10 16 0 5 5 9 10 9 6 0 10 -7 10 -16z m640 6 c0
-5 -4 -10 -10 -10 -5 0 -10 5 -10 10 0 6 5 10 10 10 6 0 10 -4 10 -10z m640
-6 c0 -8 -4 -12 -10 -9 -5 3 -10 10 -10 16 0 5 5 9 10 9 6 0 10 -7 10 -16z
m240 0 c0 -8 -4 -12 -10 -9 -5 3 -10 10 -10 16 0 5 5 9 10 9 6 0 10 -7 10 -16z
m280 1 c0 -8 -4 -15 -9 -15 -13 0 -22 16 -14 24 11 11 23 6 23 -9z m104 -24
c-4 -16 -1 -32 5 -35 6 -4 11 -13 11 -19 0 -7 -5 -4 -11 6 -5 9 -19 17 -29 17
-24 0 -26 15 -4 24 9 3 14 12 11 20 -6 16 2 28 14 20 5 -2 6 -18 3 -33z
m-3146 17 c-3 -7 -11 -13 -18 -13 -7 0 -15 6 -17 13 -3 7 4 12 17 12 13 0 20
-5 18 -12z m342 -18 c-15 -9 -50 -1 -50 12 0 5 9 7 19 3 11 -3 23 0 27 7 6 9
9 9 12 -1 2 -7 -1 -17 -8 -21z m160 15 c0 -8 -4 -15 -10 -15 -5 0 -10 7 -10
15 0 8 5 15 10 15 6 0 10 -7 10 -15z m68 3 c-6 -18 -28 -21 -28 -4 0 9 7 16
16 16 9 0 14 -5 12 -12z m372 -3 c0 -8 -4 -15 -10 -15 -5 0 -10 7 -10 15 0 8
5 15 10 15 6 0 10 -7 10 -15z m160 0 c0 -8 -4 -15 -9 -15 -13 0 -22 16 -14 24
11 11 23 6 23 -9z m79 -16 c-24 -15 -29 -10 -11 11 10 12 18 16 21 9 2 -6 -3
-15 -10 -20z m121 22 c0 -6 -4 -13 -10 -16 -5 -3 -10 1 -10 9 0 9 5 16 10 16
6 0 10 -4 10 -9z m70 -6 c0 -8 -7 -15 -15 -15 -16 0 -20 12 -8 23 11 12 23 8
23 -8z m100 6 c0 -6 -4 -13 -10 -16 -5 -3 -10 1 -10 9 0 9 5 16 10 16 6 0 10
-4 10 -9z m474 -6 c3 -9 0 -15 -9 -15 -8 0 -15 7 -15 15 0 8 4 15 9 15 5 0 11
-7 15 -15z m397 2 c-1 -12 -15 -9 -19 4 -3 6 1 10 8 8 6 -3 11 -8 11 -12z
m489 -8 c0 -5 -4 -9 -10 -9 -5 0 -10 7 -10 16 0 8 5 12 10 9 6 -3 10 -10 10
-16z m414 6 c3 -9 0 -15 -8 -15 -24 0 -46 12 -40 21 9 14 41 10 48 -6z m-1707
-31 c-12 -12 -37 5 -30 21 5 15 7 15 21 1 9 -9 13 -18 9 -22z m103 15 c0 -6
-4 -7 -10 -4 -5 3 -10 11 -10 16 0 6 5 7 10 4 6 -3 10 -11 10 -16z m366 -16
c-11 -11 -17 4 -9 23 7 18 8 18 11 1 2 -10 1 -21 -2 -24z m470 20 c17 -23 17
-33 0 -33 -7 0 -16 11 -18 25 -6 29 0 32 18 8z m194 7 c0 -5 -4 -10 -10 -10
-5 0 -10 5 -10 10 0 6 5 10 10 10 6 0 10 -4 10 -10z m-2414 -28 c-22 -5 -30 3
-21 18 5 8 11 7 22 -2 15 -12 14 -13 -1 -16z m1181 2 c-9 -9 -28 6 -21 18 4 6
10 6 17 -1 6 -6 8 -13 4 -17z m331 6 c7 -11 9 -20 4 -20 -10 0 -32 22 -32 32
0 15 15 8 28 -12z m72 -1 c0 -4 -7 -6 -15 -3 -8 4 -15 10 -15 15 0 4 7 6 15 3
8 -4 15 -10 15 -15z m240 6 c0 -8 -4 -15 -10 -15 -5 0 -10 7 -10 15 0 8 5 15
10 15 6 0 10 -7 10 -15z m490 -18 c0 -20 -1 -20 -16 -5 -9 9 -13 21 -9 27 10
16 25 3 25 -22z m430 7 c0 -8 -6 -14 -14 -14 -9 0 -12 7 -9 20 6 22 23 18 23
-6z m-2818 1 c0 -5 -5 -11 -11 -13 -6 -2 -11 4 -11 13 0 9 5 15 11 13 6 -2 11
-8 11 -13z m283 6 c3 -5 1 -12 -5 -16 -5 -3 -10 1 -10 9 0 18 6 21 15 7z m583
-9 c2 -7 -5 -12 -17 -12 -14 0 -19 5 -14 15 6 17 25 15 31 -3z m552 8 c0 -5
-4 -10 -9 -10 -6 0 -13 5 -16 10 -3 6 1 10 9 10 9 0 16 -4 16 -10z m108 -8 c2
-7 -3 -12 -12 -12 -9 0 -16 7 -16 16 0 17 22 14 28 -4z m922 -3 c0 -5 -4 -9
-10 -9 -5 0 -10 7 -10 16 0 8 5 12 10 9 6 -3 10 -10 10 -16z m114 -6 c17 -21
17 -21 -3 -16 -13 3 -21 13 -21 26 0 11 1 18 3 16 1 -2 10 -14 21 -26z m196 6
c0 -5 -4 -9 -10 -9 -5 0 -10 7 -10 16 0 8 5 12 10 9 6 -3 10 -10 10 -16z
m-2868 -11 c-7 -7 -12 -8 -12 -2 0 14 12 26 19 19 2 -3 -1 -11 -7 -17z m539
-1 c-13 -13 -26 -3 -16 12 3 6 11 8 17 5 6 -4 6 -10 -1 -17z m294 4 c-3 -6
-14 -11 -23 -11 -13 0 -13 2 4 14 21 15 30 14 19 -3z m365 9 c0 -5 -4 -10 -10
-10 -5 0 -10 5 -10 10 0 6 5 10 10 10 6 0 10 -4 10 -10z m50 -5 c0 -8 -4 -15
-9 -15 -13 0 -22 16 -14 24 11 11 23 6 23 -9z m80 5 c0 -5 -4 -10 -10 -10 -5
0 -10 5 -10 10 0 6 5 10 10 10 6 0 10 -4 10 -10z m510 0 c0 -5 -2 -10 -4 -10
-3 0 -8 5 -11 10 -3 6 -1 10 4 10 6 0 11 -4 11 -10z m60 0 c0 -5 -4 -10 -10
-10 -5 0 -10 5 -10 10 0 6 5 10 10 10 6 0 10 -4 10 -10z m234 1 c3 -5 -1 -11
-9 -15 -9 -3 -15 0 -15 9 0 16 16 20 24 6z m96 -7 c0 -8 -4 -12 -10 -9 -5 3
-10 10 -10 16 0 5 5 9 10 9 6 0 10 -7 10 -16z m390 1 c7 -9 10 -18 6 -22 -3
-3 -6 -1 -6 5 0 7 -7 12 -15 12 -8 0 -15 5 -15 10 0 15 16 12 30 -5z m110 -6
c0 -5 -4 -9 -10 -9 -5 0 -10 7 -10 16 0 8 5 12 10 9 6 -3 10 -10 10 -16z m64
6 c3 -9 0 -15 -9 -15 -8 0 -15 7 -15 15 0 8 4 15 9 15 5 0 11 -7 15 -15z
m-2334 -15 c0 -11 -4 -20 -10 -20 -5 0 -10 9 -10 20 0 11 5 20 10 20 6 0 10
-9 10 -20z m449 6 c15 -17 4 -46 -18 -46 -14 1 -13 3 3 15 20 15 20 15 0 30
-10 8 -14 15 -8 15 6 0 17 -6 23 -14z m251 -21 c0 -7 -7 -18 -15 -25 -18 -15
-20 1 -2 19 10 11 10 14 0 18 -7 3 -13 9 -13 15 0 6 6 6 15 -2 8 -7 15 -18 15
-25z m1150 25 c0 -5 -4 -10 -10 -10 -5 0 -10 5 -10 10 0 6 5 10 10 10 6 0 10
-4 10 -10z m-2020 -20 c0 -5 -7 -7 -15 -4 -8 4 -12 10 -9 15 6 11 24 2 24 -11z
m355 1 c3 -5 1 -12 -5 -16 -5 -3 -10 1 -10 9 0 18 6 21 15 7z m105 1 c0 -10
-22 -32 -32 -32 -5 0 -3 9 4 20 13 20 28 27 28 12z m105 -2 c3 -5 1 -10 -4
-10 -6 0 -11 5 -11 10 0 6 2 10 4 10 3 0 8 -4 11 -10z m2140 -10 c0 -7 -6 -15
-12 -17 -8 -3 -13 4 -13 17 0 13 5 20 13 18 6 -3 12 -11 12 -18z m-3040 0 c3
-6 -1 -13 -10 -16 -19 -8 -30 0 -20 15 8 14 22 14 30 1z m159 -6 c4 -10 1 -14
-6 -12 -15 5 -23 28 -10 28 5 0 13 -7 16 -16z m56 6 c0 -5 -4 -10 -10 -10 -5
0 -10 5 -10 10 0 6 5 10 10 10 6 0 10 -4 10 -10z m918 -8 c2 -7 -3 -12 -12
-12 -9 0 -16 7 -16 16 0 17 22 14 28 -4z m274 -4 c-7 -7 -12 -8 -12 -2 0 14
12 26 19 19 2 -3 -1 -11 -7 -17z m228 12 c0 -5 -4 -10 -10 -10 -5 0 -10 5 -10
10 0 6 5 10 10 10 6 0 10 -4 10 -10z m500 -5 c0 -8 -4 -15 -10 -15 -5 0 -10 7
-10 15 0 8 5 15 10 15 6 0 10 -7 10 -15z m264 0 c3 -8 1 -15 -4 -15 -6 0 -10
7 -10 15 0 8 2 15 4 15 2 0 6 -7 10 -15z m57 -8 c-13 -13 -26 -3 -16 12 3 6
11 8 17 5 6 -4 6 -10 -1 -17z m49 7 c0 -8 -4 -12 -10 -9 -5 3 -10 10 -10 16 0
5 5 9 10 9 6 0 10 -7 10 -16z m370 6 c0 -5 -4 -10 -10 -10 -5 0 -10 5 -10 10
0 6 5 10 10 10 6 0 10 -4 10 -10z m60 -5 c0 -8 -4 -15 -10 -15 -5 0 -10 7 -10
15 0 8 5 15 10 15 6 0 10 -7 10 -15z m-2860 -10 c0 -8 -7 -15 -15 -15 -8 0
-15 7 -15 15 0 8 7 15 15 15 8 0 15 -7 15 -15z m205 5 c3 -5 -1 -10 -9 -10 -9
0 -16 5 -16 10 0 6 4 10 9 10 6 0 13 -4 16 -10z m262 -16 c-9 -9 -28 6 -21 18
4 6 10 6 17 -1 6 -6 8 -13 4 -17z m193 10 c0 -2 -7 -4 -15 -4 -8 0 -15 4 -15
10 0 5 7 7 15 4 8 -4 15 -8 15 -10z m120 -5 c0 -5 -4 -9 -10 -9 -5 0 -10 7
-10 16 0 8 5 12 10 9 6 -3 10 -10 10 -16z m630 11 c0 -5 -7 -10 -15 -10 -8 0
-15 5 -15 10 0 6 7 10 15 10 8 0 15 -4 15 -10z m245 0 c3 -5 -1 -10 -9 -10 -9
0 -16 5 -16 10 0 6 4 10 9 10 6 0 13 -4 16 -10z m165 -5 c0 -8 -4 -15 -10 -15
-5 0 -10 7 -10 15 0 8 5 15 10 15 6 0 10 -7 10 -15z m90 7 c0 -14 -11 -21 -26
-15 -8 3 -11 9 -8 14 7 11 34 12 34 1z m245 -11 c-8 -14 -32 -14 -41 1 -4 6
-3 8 2 5 6 -3 16 -2 24 3 17 11 25 6 15 -9z m145 9 c0 -5 -2 -10 -4 -10 -3 0
-8 5 -11 10 -3 6 -1 10 4 10 6 0 11 -4 11 -10z m307 -16 c-9 -9 -28 6 -21 18
4 6 10 6 17 -1 6 -6 8 -13 4 -17z m113 18 c0 -13 -12 -22 -22 -16 -10 6 -1 24
13 24 5 0 9 -4 9 -8z m190 -2 c0 -5 -4 -10 -10 -10 -5 0 -10 5 -10 10 0 6 5
10 10 10 6 0 10 -4 10 -10z m115 -20 c-6 -9 -9 -9 -16 1 -10 17 0 34 13 21 6
-6 7 -16 3 -22z m-2725 10 c0 -5 -8 -10 -17 -10 -15 0 -16 2 -3 10 19 12 20
12 20 0z m80 0 c0 -5 -4 -10 -9 -10 -6 0 -13 5 -16 10 -3 6 1 10 9 10 9 0 16
-4 16 -10z m170 0 c0 -5 -4 -10 -9 -10 -6 0 -13 5 -16 10 -3 6 1 10 9 10 9 0
16 -4 16 -10z m395 0 c3 -5 -1 -10 -9 -10 -9 0 -16 5 -16 10 0 6 4 10 9 10 6
0 13 -4 16 -10z m245 0 c0 -5 -4 -10 -9 -10 -6 0 -13 5 -16 10 -3 6 1 10 9 10
9 0 16 -4 16 -10z m292 -2 c-9 -9 -15 -9 -24 0 -9 9 -7 12 12 12 19 0 21 -3
12 -12z m258 2 c0 -5 -4 -10 -9 -10 -6 0 -13 5 -16 10 -3 6 1 10 9 10 9 0 16
-4 16 -10z m245 0 c3 -5 -1 -10 -9 -10 -9 0 -16 5 -16 10 0 6 4 10 9 10 6 0
13 -4 16 -10z m250 0 c3 -5 -1 -10 -9 -10 -9 0 -16 5 -16 10 0 6 4 10 9 10 6
0 13 -4 16 -10z m305 0 c0 -5 -4 -10 -10 -10 -5 0 -10 5 -10 10 0 6 5 10 10
10 6 0 10 -4 10 -10z m585 0 c3 -5 -1 -10 -9 -10 -9 0 -16 5 -16 10 0 6 4 10
9 10 6 0 13 -4 16 -10z m-655 -4 c0 -11 -19 -15 -25 -6 -3 5 1 10 9 10 9 0 16
-2 16 -4z m-5160 -58 c0 -5 -7 -8 -15 -8 -15 0 -20 21 -8 33 7 7 23 -11 23
-25z m470 2 c0 -5 -10 -10 -22 -9 -22 0 -22 1 -3 9 11 5 21 9 23 9 1 1 2 -3 2
-9z m1155 -10 c4 -6 3 -40 0 -75 -6 -50 -11 -65 -23 -65 -12 0 -13 3 -4 12 14
14 16 42 2 33 -5 -3 -10 -1 -10 4 0 7 -24 11 -58 11 l-58 0 1 -52 c0 -46 -2
-53 -20 -53 -17 0 -20 8 -23 53 l-3 52 -45 0 c-42 0 -44 -1 -44 -29 0 -54 -3
-56 -95 -53 l-84 3 -3 -87 -3 -88 -43 -3 -44 -2 4 40 4 39 -58 0 -58 0 0 35 0
35 48 0 47 0 0 37 0 38 43 -3 c41 -4 42 -3 42 27 l0 31 100 0 100 0 0 29 c0
28 3 30 43 34 95 8 236 7 242 -3z"/>
<path d="M4533 4489 c-1 -16 1 -18 11 -10 9 8 13 7 13 -4 0 -8 -6 -15 -14 -15
-7 0 -13 -5 -13 -10 0 -12 41 7 52 24 5 7 8 4 8 -6 0 -30 15 -20 17 12 2 28 0
30 -35 30 -31 0 -38 -4 -39 -21z"/>
<path d="M3040 3581 c0 -24 3 -28 20 -24 11 3 27 14 35 25 7 11 18 17 24 14 5
-4 12 -2 16 4 4 6 -13 10 -44 10 -50 0 -51 -1 -51 -29z"/>
<path d="M3123 3440 c-1 -41 3 -88 7 -105 7 -27 8 -25 8 15 0 25 -4 72 -8 105
l-7 60 0 -75z"/>
<path d="M3087 3484 c-4 -4 -7 -16 -7 -26 0 -10 -7 -18 -15 -18 -8 0 -15 -7
-15 -15 0 -8 7 -15 15 -15 8 0 15 -7 15 -15 0 -30 19 -14 26 21 7 36 -6 81
-19 68z"/>
<path d="M3043 3240 c0 -25 2 -35 4 -22 2 12 2 32 0 45 -2 12 -4 2 -4 -23z"/>
<path d="M3134 3080 c0 -69 1 -97 3 -62 2 34 2 90 0 125 -2 34 -3 6 -3 -63z"/>
<path d="M5068 3138 c-16 -5 -28 -16 -28 -24 0 -8 -9 -14 -20 -14 -11 0 -23
-6 -26 -14 -3 -8 -12 -12 -20 -9 -10 4 -17 -2 -21 -15 -2 -11 -13 -22 -24 -25
-23 -6 -26 -27 -3 -27 13 0 15 -20 12 -150 -3 -143 -2 -151 17 -156 11 -4 23
-12 28 -18 5 -8 10 -6 18 4 9 12 10 10 6 -8 -4 -18 -2 -22 9 -18 8 3 14 2 14
-2 0 -4 14 -15 31 -24 28 -17 32 -17 57 -1 15 10 30 21 33 26 4 5 16 6 28 2
18 -5 21 -2 21 20 0 22 3 25 20 20 19 -6 20 -2 20 143 0 124 3 151 15 156 8 3
15 10 15 16 0 6 -4 8 -10 5 -5 -3 -10 -1 -10 6 0 17 -31 38 -57 39 -16 0 -23
6 -23 20 0 11 -7 20 -15 20 -8 0 -24 9 -35 20 -11 11 -21 20 -22 19 -2 0 -15
-5 -30 -11z m102 -94 c0 -8 -4 -12 -10 -9 -5 3 -10 10 -10 16 0 5 5 9 10 9 6
0 10 -7 10 -16z"/>
<path d="M4705 2734 c-36 -17 -62 -33 -89 -56 -11 -10 -28 -18 -38 -18 -17 0
-18 -12 -18 -140 0 -77 3 -139 8 -139 24 4 40 -4 52 -26 7 -13 17 -22 21 -19
5 3 26 -5 48 -18 l40 -23 37 20 c21 11 41 20 45 20 4 0 17 10 29 23 11 12 27
22 34 22 20 0 22 13 18 158 -3 107 -6 132 -18 132 -8 0 -28 10 -43 21 -16 12
-34 18 -40 15 -7 -5 -9 -1 -5 8 6 15 2 18 -28 20 -7 1 -15 4 -18 8 -3 3 -19 0
-35 -8z"/>
<path d="M5367 2704 c-37 -24 -71 -44 -75 -44 -4 0 -6 -62 -5 -137 2 -123 4
-138 19 -142 28 -5 64 -32 58 -42 -3 -5 2 -6 11 -3 9 4 21 0 28 -9 28 -34 63
-29 133 18 37 25 71 45 76 45 4 0 8 59 8 130 l0 130 -26 0 c-15 0 -23 4 -19
11 4 6 -2 13 -14 16 -12 3 -21 9 -21 14 0 5 -7 9 -16 9 -8 0 -13 4 -9 9 6 11
-17 25 -55 34 -19 4 -42 -6 -93 -39z"/>
<path d="M5065 2410 c-46 -30 -66 -44 -79 -56 -7 -7 -20 -13 -30 -15 -17 -4
-18 -16 -17 -132 2 -124 1 -127 -21 -136 -22 -9 -22 -10 9 -16 18 -4 35 -15
38 -24 3 -9 31 -31 63 -50 l57 -33 37 21 c20 11 44 21 52 21 8 0 18 9 21 20 3
11 13 20 21 20 8 0 14 4 14 9 0 5 10 13 22 17 20 6 21 7 4 19 -15 11 -17 28
-14 138 2 69 1 125 -2 125 -25 -2 -40 4 -40 17 0 8 -3 14 -7 13 -15 -3 -48 16
-69 39 -25 27 -21 27 -59 3z"/>
<path d="M3470 2180 c0 -5 5 -10 11 -10 5 0 7 5 4 10 -3 6 -8 10 -11 10 -2 0
-4 -4 -4 -10z"/>
<path d="M3921 2174 c0 -11 3 -14 6 -6 3 7 2 16 -1 19 -3 4 -6 -2 -5 -13z"/>
<path d="M4260 2180 c0 -5 5 -10 10 -10 6 0 10 5 10 10 0 6 -4 10 -10 10 -5 0
-10 -4 -10 -10z"/>
<path d="M4350 2180 c0 -5 5 -10 10 -10 6 0 10 5 10 10 0 6 -4 10 -10 10 -5 0
-10 -4 -10 -10z"/>
<path d="M4435 2180 c3 -5 8 -10 11 -10 2 0 4 5 4 10 0 6 -5 10 -11 10 -5 0
-7 -4 -4 -10z"/>
<path d="M3555 2170 c-3 -5 -1 -10 4 -10 6 0 11 5 11 10 0 6 -2 10 -4 10 -3 0
-8 -4 -11 -10z"/>
<path d="M3665 2109 c-4 -6 -19 -9 -36 -5 -28 5 -41 -8 -16 -17 6 -2 9 -8 5
-12 -5 -5 -17 0 -28 10 -19 18 -20 17 -20 -1 0 -10 -3 -29 -6 -41 -4 -14 -2
-23 5 -23 6 0 11 6 11 14 0 18 112 59 121 44 4 -6 12 -7 18 -4 6 4 11 2 11 -5
0 -8 6 -6 18 4 23 21 32 21 32 2 0 -8 5 -15 10 -15 6 0 10 8 10 19 0 25 -37
34 -50 13 -8 -15 -9 -15 -10 3 0 17 -2 17 -10 5 -9 -13 -11 -13 -20 0 -5 8
-10 11 -10 6 0 -5 -6 -3 -14 3 -11 9 -16 9 -21 0z"/>
<path d="M4030 2111 c0 -6 5 -13 10 -16 6 -3 10 1 10 9 0 9 -4 16 -10 16 -5 0
-10 -4 -10 -9z"/>
<path d="M4307 2108 c-19 -7 -26 -15 -23 -25 3 -8 6 -19 6 -24 0 -5 7 -9 15
-9 12 0 14 7 9 26 -6 24 -5 25 15 14 15 -8 20 -17 16 -31 -4 -10 -2 -19 4 -19
20 0 24 42 5 60 -15 14 -25 16 -47 8z"/>
<path d="M4380 2112 c0 -16 39 -44 50 -37 7 4 16 1 21 -6 4 -7 11 -10 14 -7 4
4 -2 17 -14 29 -17 18 -23 20 -36 9 -12 -10 -15 -10 -15 4 0 9 -4 16 -10 16
-5 0 -10 -4 -10 -8z"/>
<path d="M3470 2096 c0 -9 5 -16 10 -16 6 0 10 4 10 9 0 6 -4 13 -10 16 -5 3
-10 -1 -10 -9z"/>
<path d="M3523 2096 c3 -7 0 -19 -6 -25 -8 -8 -7 -11 4 -11 16 0 41 34 32 44
-12 12 -35 6 -30 -8z"/>
<path d="M3820 2096 c0 -9 5 -16 10 -16 6 0 10 4 10 9 0 6 -4 13 -10 16 -5 3
-10 -1 -10 -9z"/>
<path d="M3874 2102 c-6 -4 -14 -17 -18 -29 -6 -17 -3 -23 8 -23 9 0 16 9 16
20 0 11 7 20 15 20 8 0 15 5 15 10 0 12 -20 13 -36 2z"/>
<path d="M3931 2094 c0 -11 3 -14 6 -6 3 7 2 16 -1 19 -3 4 -6 -2 -5 -13z"/>
<path d="M4060 2100 c0 -5 5 -10 10 -10 6 0 10 5 10 10 0 6 -4 10 -10 10 -5 0
-10 -4 -10 -10z"/>
<path d="M4102 2098 c5 -15 28 -23 28 -10 0 5 -7 13 -16 16 -10 4 -14 1 -12
-6z"/>
<path d="M4175 2101 c-7 -12 12 -24 25 -16 11 7 4 25 -10 25 -5 0 -11 -4 -15
-9z"/>
<path d="M4230 2102 c0 -4 4 -13 9 -21 7 -11 11 -10 19 6 9 15 7 19 -9 20 -10
1 -19 -1 -19 -5z"/>
<path d="M4475 2100 c-4 -6 5 -10 19 -10 14 0 26 5 26 10 0 6 -9 10 -19 10
-11 0 -23 -4 -26 -10z"/>
<path d="M4565 2101 c-6 -11 9 -23 19 -14 9 9 7 23 -3 23 -6 0 -12 -4 -16 -9z"/>
<path d="M3960 2089 c0 -5 5 -7 10 -4 6 3 10 8 10 11 0 2 -4 4 -10 4 -5 0 -10
-5 -10 -11z"/>
<path d="M4065 2060 c-3 -5 1 -10 10 -10 9 0 13 5 10 10 -3 6 -8 10 -10 10 -2
0 -7 -4 -10 -10z"/>
<path d="M4190 2060 c0 -5 7 -10 15 -10 8 0 15 5 15 10 0 6 -7 10 -15 10 -8 0
-15 -4 -15 -10z"/>
<path d="M3660 2056 c0 -2 7 -9 15 -16 12 -10 15 -10 15 4 0 9 -7 16 -15 16
-8 0 -15 -2 -15 -4z"/>
<path d="M3810 2050 c0 -5 5 -10 11 -10 5 0 7 5 4 10 -3 6 -8 10 -11 10 -2 0
-4 -4 -4 -10z"/>
<path d="M3900 2044 c0 -8 5 -12 10 -9 6 3 10 10 10 16 0 5 -4 9 -10 9 -5 0
-10 -7 -10 -16z"/>
<path d="M4010 2050 c0 -5 5 -10 10 -10 6 0 10 5 10 10 0 6 -4 10 -10 10 -5 0
-10 -4 -10 -10z"/>
<path d="M4270 2032 c0 -16 43 -48 47 -35 2 7 11 9 19 6 9 -3 14 1 14 12 0 13
-6 15 -30 10 -19 -4 -30 -3 -30 4 0 6 -4 11 -10 11 -5 0 -10 -4 -10 -8z"/>
<path d="M4491 2026 c-6 -7 -8 -22 -4 -31 5 -13 3 -16 -7 -10 -8 5 -11 3 -8
-5 8 -26 26 -21 33 9 4 17 11 31 16 31 5 0 9 5 9 10 0 15 -26 12 -39 -4z"/>
<path d="M4422 2014 c1 -9 9 -19 16 -22 9 -3 13 2 10 14 -1 9 -9 19 -16 22 -9
3 -13 -2 -10 -14z"/>
<path d="M4567 2024 c-4 -4 -7 -14 -7 -22 0 -12 2 -12 17 -1 9 8 18 13 20 12
1 -2 3 0 4 5 0 10 -25 14 -34 6z"/>
<path d="M4516 1952 c-14 -17 -15 -21 -2 -31 11 -9 15 -9 18 0 2 7 10 9 16 5
17 -10 15 -26 -3 -26 -17 0 -20 -16 -5 -25 6 -3 13 1 16 9 3 9 12 16 20 16 8
0 14 9 14 20 0 11 -5 20 -12 20 -6 0 -19 7 -28 15 -15 14 -19 13 -34 -3z"/>
<path d="M4600 1950 c0 -5 7 -10 15 -10 8 0 15 5 15 10 0 6 -7 10 -15 10 -8 0
-15 -4 -15 -10z"/>
<path d="M4650 1946 c0 -9 7 -16 16 -16 17 0 14 22 -4 28 -7 2 -12 -3 -12 -12z"/>
<path d="M3460 1910 c0 -5 5 -10 10 -10 6 0 10 5 10 10 0 6 -4 10 -10 10 -5 0
-10 -4 -10 -10z"/>
<path d="M4680 1876 c0 -9 7 -16 16 -16 17 0 14 22 -4 28 -7 2 -12 -3 -12 -12z"/>
<path d="M4730 1870 c0 -5 7 -10 16 -10 8 0 12 5 9 10 -3 6 -10 10 -16 10 -5
0 -9 -4 -9 -10z"/>
<path d="M4790 1860 c0 -5 7 -10 15 -10 8 0 15 5 15 10 0 6 -7 10 -15 10 -8 0
-15 -4 -15 -10z"/>
<path d="M4880 1854 c0 -8 5 -12 10 -9 6 4 8 11 5 16 -9 14 -15 11 -15 -7z"/>
<path d="M6405 1860 c-3 -5 -1 -10 4 -10 6 0 11 5 11 10 0 6 -2 10 -4 10 -3 0
-8 -4 -11 -10z"/>
<path d="M6575 1860 c-3 -5 -1 -10 4 -10 6 0 11 5 11 10 0 6 -2 10 -4 10 -3 0
-8 -4 -11 -10z"/>
<path d="M6660 1859 c0 -5 5 -7 10 -4 6 3 10 8 10 11 0 2 -4 4 -10 4 -5 0 -10
-5 -10 -11z"/>
<path d="M5645 1850 c-3 -5 -1 -10 4 -10 6 0 11 5 11 10 0 6 -2 10 -4 10 -3 0
-8 -4 -11 -10z"/>
<path d="M6155 1850 c-3 -5 -1 -10 4 -10 6 0 11 5 11 10 0 6 -2 10 -4 10 -3 0
-8 -4 -11 -10z"/>
<path d="M6255 1850 c-3 -5 -1 -10 4 -10 6 0 11 5 11 10 0 6 -2 10 -4 10 -3 0
-8 -4 -11 -10z"/>
<path d="M6310 1850 c0 -5 5 -10 11 -10 5 0 7 5 4 10 -3 6 -8 10 -11 10 -2 0
-4 -4 -4 -10z"/>
<path d="M4760 1786 c0 -19 51 -31 61 -14 11 18 0 26 -12 8 -8 -13 -11 -13
-20 3 -12 20 -29 23 -29 3z"/>
<path d="M4955 1790 c-3 -5 -1 -10 5 -10 6 0 18 -7 27 -15 21 -21 28 -12 11
14 -14 22 -33 27 -43 11z"/>
<path d="M5200 1785 c0 -9 5 -15 11 -13 6 2 11 8 11 13 0 5 -5 11 -11 13 -6 2
-11 -4 -11 -13z"/>
<path d="M5280 1785 c0 -9 5 -13 11 -10 6 4 13 -2 16 -14 4 -17 8 -19 19 -10
7 6 17 8 23 5 12 -8 21 18 11 33 -5 10 -9 9 -13 -4 -6 -14 -9 -14 -37 0 -27
14 -30 14 -30 0z"/>
<path d="M5606 1772 c4 -17 1 -32 -5 -36 -6 -4 -11 -13 -11 -19 0 -7 5 -4 11
6 8 14 14 15 24 7 8 -7 16 -7 19 -2 3 6 -1 12 -9 16 -8 3 -12 11 -9 19 3 8 -2
20 -11 27 -13 11 -14 9 -9 -18z"/>
<path d="M5966 1793 c-11 -11 -6 -23 9 -23 8 0 15 4 15 9 0 13 -16 22 -24 14z"/>
<path d="M6524 1784 c-7 -12 -15 -15 -24 -9 -26 16 -60 11 -83 -13 -18 -20
-19 -24 -7 -32 20 -13 40 -12 40 0 0 6 -7 10 -15 10 -19 0 -19 7 -1 25 12 12
16 12 25 1 8 -9 24 -12 44 -9 38 6 40 7 35 27 -3 15 -4 15 -14 0z"/>
<path d="M4685 1780 c-3 -6 1 -12 9 -15 9 -3 23 -7 31 -10 23 -7 28 13 6 24
-25 14 -38 14 -46 1z"/>
<path d="M4880 1778 c0 -12 38 -10 45 2 4 6 -5 9 -19 8 -15 -1 -26 -6 -26 -10z"/>
<path d="M5020 1781 c0 -6 5 -13 10 -16 6 -3 10 1 10 9 0 9 -4 16 -10 16 -5 0
-10 -4 -10 -9z"/>
<path d="M5056 1773 c-12 -30 -5 -37 14 -13 11 14 20 19 20 13 0 -17 30 -17
30 0 0 20 -57 20 -64 0z"/>
<path d="M5131 1774 c0 -11 3 -14 6 -6 3 7 2 16 -1 19 -3 4 -6 -2 -5 -13z"/>
<path d="M5166 1777 c3 -10 9 -15 12 -12 3 3 0 11 -7 18 -10 9 -11 8 -5 -6z"/>
<path d="M5380 1781 c0 -15 18 -23 25 -11 4 6 11 7 17 4 7 -4 8 -2 4 4 -9 14
-46 16 -46 3z"/>
<path d="M5446 1774 c-9 -23 3 -33 15 -12 5 10 16 15 24 12 8 -4 15 -1 15 5 0
17 -47 13 -54 -5z"/>
<path d="M5530 1780 c0 -5 6 -10 14 -10 8 0 16 -6 19 -12 2 -7 8 -10 12 -5 5
4 0 14 -11 22 -23 17 -34 19 -34 5z"/>
<path d="M5653 1776 c9 -7 17 -19 17 -27 0 -10 3 -10 12 -1 9 9 8 15 -8 27
-10 8 -23 14 -29 14 -5 0 -2 -6 8 -13z"/>
<path d="M5720 1780 c-11 -7 -12 -12 -3 -21 13 -13 33 -4 33 17 0 16 -9 18
-30 4z"/>
<path d="M5780 1775 c0 -16 27 -32 37 -21 7 7 -16 36 -28 36 -5 0 -9 -7 -9
-15z"/>
<path d="M5885 1780 c3 -5 11 -10 16 -10 6 0 7 5 4 10 -3 6 -11 10 -16 10 -6
0 -7 -4 -4 -10z"/>
<path d="M6010 1774 c0 -8 5 -12 10 -9 6 3 10 10 10 16 0 5 -4 9 -10 9 -5 0
-10 -7 -10 -16z"/>
<path d="M6040 1781 c0 -5 5 -13 10 -16 6 -3 10 -2 10 4 0 5 -4 13 -10 16 -5
3 -10 2 -10 -4z"/>
<path d="M6095 1780 c3 -5 11 -10 16 -10 6 0 7 5 4 10 -3 6 -11 10 -16 10 -6
0 -7 -4 -4 -10z"/>
<path d="M6140 1784 c0 -8 32 -33 43 -34 4 0 7 5 7 11 0 5 -5 7 -10 4 -6 -3
-13 1 -16 9 -6 16 -24 23 -24 10z"/>
<path d="M6200 1782 c0 -2 7 -10 15 -18 11 -11 19 -12 34 -4 16 8 23 6 35 -11
8 -12 20 -19 28 -17 26 9 -40 56 -77 55 -19 -1 -35 -3 -35 -5z"/>
<path d="M6320 1781 c0 -12 29 -41 41 -41 13 0 11 12 -5 33 -14 18 -36 23 -36
8z"/>
<path d="M6382 1776 c1 -10 8 -17 13 -17 15 1 12 24 -3 29 -9 3 -13 -2 -10
-12z"/>
<path d="M6560 1780 c0 -4 11 -13 25 -20 20 -10 28 -11 37 -2 9 9 8 12 -5 12
-9 0 -17 4 -17 9 0 6 -9 9 -20 8 -11 -1 -20 -4 -20 -7z"/>
<path d="M6653 1775 c-8 -21 -3 -24 30 -18 22 4 25 8 16 19 -15 19 -38 18 -46
-1z"/>
<path d="M5850 1771 c0 -6 5 -13 10 -16 6 -3 10 1 10 9 0 9 -4 16 -10 16 -5 0
-10 -4 -10 -9z"/>
<path d="M5923 1755 c0 -14 3 -25 8 -25 5 0 9 4 9 9 0 5 3 16 6 25 4 10 1 16
-9 16 -9 0 -14 -10 -14 -25z"/>
<path d="M6070 1770 c0 -5 5 -10 11 -10 5 0 7 5 4 10 -3 6 -8 10 -11 10 -2 0
-4 -4 -4 -10z"/>
<path d="M3010 1670 c0 -60 4 -100 10 -100 6 0 10 40 10 100 0 60 -4 100 -10
100 -6 0 -10 -40 -10 -100z"/>
<path d="M5262 1756 c7 -8 15 -12 17 -11 5 6 -10 25 -20 25 -5 0 -4 -6 3 -14z"/>
<path d="M4930 1744 c0 -14 3 -14 15 -4 8 7 15 14 15 16 0 2 -7 4 -15 4 -8 0
-15 -7 -15 -16z"/>
<path d="M7372 1735 c0 -16 2 -22 5 -12 2 9 2 23 0 30 -3 6 -5 -1 -5 -18z"/>
<path d="M7417 1738 c-8 -27 -9 -26 33 -28 56 -3 60 -1 60 25 0 23 -4 25 -44
25 -37 0 -45 -4 -49 -22z"/>
<path d="M4965 1740 c-3 -5 -1 -10 4 -10 6 0 11 5 11 10 0 6 -2 10 -4 10 -3 0
-8 -4 -11 -10z"/>
<path d="M4730 1730 c0 -5 5 -10 10 -10 6 0 10 5 10 10 0 6 -4 10 -10 10 -5 0
-10 -4 -10 -10z"/>
<path d="M5010 1730 c0 -5 5 -10 10 -10 6 0 10 5 10 10 0 6 -4 10 -10 10 -5 0
-10 -4 -10 -10z"/>
<path d="M5140 1730 c0 -5 5 -10 10 -10 6 0 10 5 10 10 0 6 -4 10 -10 10 -5 0
-10 -4 -10 -10z"/>
<path d="M5210 1730 c0 -5 10 -10 23 -10 18 0 19 2 7 10 -19 13 -30 13 -30 0z"/>
<path d="M5488 1733 c-10 -2 -18 -9 -18 -14 0 -14 20 -11 36 6 16 15 13 16
-18 8z"/>
<path d="M5690 1730 c0 -5 5 -10 11 -10 5 0 7 5 4 10 -3 6 -8 10 -11 10 -2 0
-4 -4 -4 -10z"/>
<path d="M5880 1731 c0 -6 5 -13 10 -16 6 -3 10 1 10 9 0 9 -4 16 -10 16 -5 0
-10 -4 -10 -9z"/>
<path d="M6137 1734 c-8 -8 1 -24 14 -24 5 0 9 7 9 15 0 15 -12 20 -23 9z"/>
<path d="M6698 1733 c7 -3 16 -2 19 1 4 3 -2 6 -13 5 -11 0 -14 -3 -6 -6z"/>
<path d="M4690 1720 c0 -5 4 -10 9 -10 6 0 13 5 16 10 3 6 -1 10 -9 10 -9 0
-16 -4 -16 -10z"/>
<path d="M4865 1720 c3 -5 10 -10 16 -10 5 0 9 5 9 10 0 6 -7 10 -16 10 -8 0
-12 -4 -9 -10z"/>
<path d="M5402 1718 c6 -18 28 -21 28 -4 0 9 -7 16 -16 16 -9 0 -14 -5 -12
-12z"/>
<path d="M1995 1020 c4 -6 11 -8 16 -5 14 9 11 15 -7 15 -8 0 -12 -5 -9 -10z"/>
<path d="M1995 990 c-3 -5 1 -10 9 -10 9 0 16 5 16 10 0 6 -4 10 -9 10 -6 0
-13 -4 -16 -10z"/>
<path d="M1089 5695 c-1 -3 -2 -9 -3 -13 -2 -13 -33 -42 -45 -42 -6 0 -11 -4
-11 -10 0 -13 -66 -80 -79 -80 -6 0 -11 -9 -11 -20 0 -11 -7 -20 -15 -20 -13
0 -15 -13 -13 -77 3 -75 4 -78 27 -75 17 1 22 -2 17 -13 -3 -9 3 -19 17 -26
29 -16 47 -35 40 -43 -4 -3 1 -6 10 -6 10 0 17 -7 17 -16 0 -8 5 -12 10 -9 6
3 10 -1 10 -10 0 -9 5 -13 10 -10 6 3 10 -1 10 -9 0 -8 9 -18 20 -21 26 -8 62
3 57 18 -2 6 10 21 27 33 17 11 30 26 28 32 -1 7 2 12 7 12 14 0 61 45 61 58
0 6 10 12 23 14 20 3 22 9 25 76 2 58 0 72 -12 72 -8 0 -18 9 -21 20 -3 11
-10 20 -14 20 -12 0 -61 48 -61 60 0 5 -6 10 -14 10 -8 0 -16 7 -20 15 -3 8
-12 15 -21 15 -8 0 -15 5 -15 11 0 23 -56 55 -61 34z"/>
<path d="M9055 5669 c-4 -11 -9 -18 -12 -15 -3 2 -15 -6 -28 -20 -12 -13 -27
-24 -34 -24 -6 0 -11 -5 -11 -10 0 -6 -20 -29 -45 -52 -41 -38 -45 -46 -44
-87 2 -64 12 -106 26 -106 12 0 63 -51 62 -63 0 -4 7 -11 17 -17 23 -13 46
-37 60 -61 18 -31 45 -29 75 5 14 17 34 31 43 31 9 0 16 8 16 20 0 11 8 24 18
27 22 9 42 29 42 42 0 6 9 11 20 11 18 0 20 7 20 80 0 64 -3 80 -15 80 -8 0
-15 7 -15 15 0 8 -9 19 -20 25 -11 6 -19 16 -17 22 1 7 -5 12 -13 13 -8 1 -14
6 -12 13 1 7 -9 17 -24 22 -14 6 -23 13 -21 17 6 10 -19 34 -27 26 -3 -4 -6 1
-6 10 0 26 -47 22 -55 -4z"/>
<path d="M7548 5583 c-125 -3 -148 -6 -148 -19 0 -8 -13 -27 -30 -41 -16 -13
-30 -30 -30 -36 0 -7 -16 -23 -35 -37 -18 -14 -36 -33 -39 -43 -2 -10 -14 -21
-25 -24 -20 -5 -21 -12 -21 -175 l0 -169 30 -29 c17 -17 35 -30 39 -30 5 0 11
-10 15 -22 3 -13 19 -31 36 -40 25 -14 30 -23 30 -53 l0 -35 205 0 205 0 0 25
c0 13 7 28 16 33 9 5 15 12 15 15 -1 4 2 7 5 6 8 -1 44 42 44 53 0 12 26 38
37 38 5 0 13 15 18 33 8 26 15 31 34 29 18 -2 22 2 17 14 -3 8 1 25 9 37 11
16 15 50 15 134 0 106 -1 113 -20 113 -15 0 -20 7 -20 24 0 16 -7 27 -20 31
-11 3 -20 11 -20 16 0 5 -7 9 -16 9 -10 0 -14 6 -10 15 3 9 0 15 -9 15 -8 0
-15 6 -15 14 0 8 -7 16 -15 20 -8 3 -15 12 -15 20 0 7 -9 16 -20 19 -12 3 -20
14 -20 26 0 19 -5 21 -47 19 -27 -1 -114 -4 -195 -5z"/>
<path d="M4675 5510 c3 -5 8 -10 11 -10 2 0 4 5 4 10 0 6 -5 10 -11 10 -5 0
-7 -4 -4 -10z"/>
<path d="M8500 5504 c0 -8 5 -12 10 -9 6 3 10 10 10 16 0 5 -4 9 -10 9 -5 0
-10 -7 -10 -16z"/>
<path d="M60 5435 l0 -75 213 0 c116 0 222 3 235 6 20 6 22 12 22 75 l0 69
-235 0 -235 0 0 -75z"/>
<path d="M9652 5438 l3 -73 225 0 225 0 3 73 3 72 -231 0 -231 0 3 -72z"/>
<path d="M8600 5380 c0 -5 5 -10 11 -10 5 0 7 5 4 10 -3 6 -8 10 -11 10 -2 0
-4 -4 -4 -10z"/>
<path d="M3038 5255 c2 -19 6 -35 8 -35 2 0 4 16 4 35 0 19 -4 35 -8 35 -4 0
-6 -16 -4 -35z"/>
<path d="M8740 5180 c0 -5 5 -10 11 -10 5 0 7 5 4 10 -3 6 -8 10 -11 10 -2 0
-4 -4 -4 -10z"/>
<path d="M8785 5120 c3 -5 8 -10 11 -10 2 0 4 5 4 10 0 6 -5 10 -11 10 -5 0
-7 -4 -4 -10z"/>
<path d="M8340 5089 c0 -52 -12 -88 -26 -82 -10 4 -12 0 -8 -11 4 -11 0 -16
-13 -16 -12 0 -25 -12 -34 -32 -8 -18 -20 -32 -26 -31 -7 2 -15 -7 -18 -18 -4
-12 -12 -18 -21 -15 -11 4 -14 -6 -14 -48 0 -47 2 -53 18 -50 11 3 21 -3 27
-18 6 -13 18 -22 27 -22 10 1 18 -9 22 -29 5 -24 9 -28 18 -19 17 17 28 15 21
-3 -3 -10 0 -15 8 -13 10 2 15 -12 17 -57 l3 -60 82 3 c45 2 86 8 92 13 5 6 4
9 -3 9 -16 0 16 34 41 43 9 4 17 16 17 28 0 15 4 19 16 15 13 -5 15 -2 11 14
-4 15 -1 20 11 18 11 -2 18 5 20 20 2 12 10 22 18 22 8 0 14 5 14 10 0 6 7 10
16 10 8 0 12 5 9 11 -4 6 2 13 14 16 17 4 21 13 21 48 0 29 -5 45 -15 49 -8 3
-15 12 -15 20 0 10 -6 13 -16 9 -13 -5 -15 -2 -10 15 5 16 4 20 -6 17 -8 -3
-21 8 -32 25 -13 24 -23 30 -39 26 -12 -3 -16 -3 -9 0 6 3 12 10 12 15 0 6 -4
7 -10 4 -5 -3 -10 3 -10 13 0 15 -5 19 -20 15 -17 -4 -20 0 -20 25 l0 31 -95
3 -95 3 0 -26z m360 -269 c0 -5 -4 -10 -10 -10 -5 0 -10 5 -10 10 0 6 5 10 10
10 6 0 10 -4 10 -10z"/>
<path d="M1658 5083 c-2 -20 -9 -29 -25 -31 -14 -2 -20 -8 -16 -18 3 -8 -1
-14 -10 -14 -8 0 -17 -9 -20 -20 -3 -12 -14 -20 -26 -20 -13 0 -21 -6 -21 -18
0 -17 -54 -72 -71 -72 -5 0 -9 -20 -9 -44 0 -39 3 -45 23 -48 14 -2 21 -9 21
-21 -1 -9 4 -17 11 -17 8 0 16 -9 20 -19 3 -11 13 -22 21 -25 8 -3 13 -10 10
-15 -3 -5 2 -8 11 -7 9 0 22 -10 29 -24 7 -13 22 -31 33 -40 11 -8 21 -26 23
-40 3 -25 4 -25 94 -25 l92 0 6 50 c4 28 7 58 7 68 0 9 7 17 15 17 8 0 14 -5
14 -11 0 -5 5 -7 10 -4 6 3 10 19 10 34 0 22 4 27 22 27 15 -1 27 8 36 27 9
18 19 26 28 23 24 -9 19 76 -6 92 -11 7 -20 19 -20 28 0 8 -4 13 -9 9 -9 -5
-43 35 -52 60 -2 5 -11 10 -19 10 -8 0 -14 6 -12 13 1 7 -5 15 -13 18 -10 4
-15 20 -15 45 l0 39 -94 0 -95 0 -3 -27z"/>
<path d="M60 4820 l0 -260 674 0 c659 0 674 0 679 19 3 12 -3 27 -14 37 -10 9
-19 25 -19 36 0 10 -6 18 -14 18 -7 0 -21 15 -30 34 -9 18 -25 36 -36 39 -15
4 -20 13 -20 36 0 28 -3 31 -30 31 l-30 0 0 65 c0 64 0 65 24 59 21 -5 25 -2
28 23 2 20 9 29 26 31 18 3 21 6 12 17 -8 9 -8 15 0 20 5 3 10 3 10 -2 0 -16
20 22 20 40 0 16 -37 17 -640 17 l-640 0 0 -260z m620 75 l0 -44 38 2 37 2 3
-47 3 -48 -40 0 c-35 0 -41 -4 -47 -25 -3 -14 -4 -32 0 -40 4 -12 -4 -15 -39
-15 l-45 0 0 40 0 40 -46 0 -45 0 3 43 c3 42 3 42 47 45 l43 3 -6 38 c-3 21
-3 40 0 43 2 3 25 6 49 6 l45 1 0 -44z"/>
<path d="M8830 5060 c-6 -11 -7 -20 -3 -19 24 4 33 -4 33 -26 0 -18 5 -25 20
-25 15 0 22 -9 27 -30 5 -26 10 -30 32 -28 25 3 26 2 26 -57 0 -54 -2 -60 -22
-63 -17 -2 -25 -14 -33 -42 -7 -26 -15 -37 -24 -34 -8 3 -16 -7 -22 -28 -7
-23 -16 -34 -33 -36 -13 -2 -21 -9 -18 -16 3 -7 -4 -23 -14 -37 -10 -13 -19
-32 -19 -41 0 -17 38 -18 665 -18 l665 0 0 260 0 260 -635 0 c-626 0 -634 0
-645 -20z"/>
<path d="M8730 4505 c0 -25 -18 -45 -41 -45 -19 0 -29 -20 -29 -56 0 -19 -5
-24 -25 -24 -23 0 -25 -4 -25 -45 0 -43 -1 -45 -29 -45 -31 0 -41 -14 -41 -61
0 -24 -4 -29 -25 -29 -20 0 -25 -5 -25 -24 0 -27 -24 -56 -46 -56 -10 0 -14
-12 -14 -39 0 -37 -2 -40 -32 -43 -33 -3 -33 -4 -31 -51 3 -46 2 -48 -27 -54
-32 -6 -34 -12 -24 -75 l7 -38 283 0 284 0 0 85 0 85 -39 0 -38 0 -7 58 c-4
33 -6 102 -5 155 l1 97 34 0 c32 0 33 2 36 43 l3 42 171 3 172 2 6 -45 c6 -39
11 -45 31 -45 12 0 26 -7 29 -16 3 -9 6 -72 6 -140 l0 -124 -30 -6 c-25 -5
-30 -11 -30 -34 l0 -28 -125 -7 c-69 -4 -134 -5 -145 -2 -18 5 -20 0 -20 -59
l0 -64 255 2 255 3 0 243 c1 133 1 288 1 345 l1 102 -361 5 c-359 5 -361 5
-361 -15z"/>
<path d="M60 4170 l0 -350 900 0 900 0 0 55 c0 48 -2 55 -20 55 -17 0 -20 7
-20 44 0 50 -19 77 -50 69 -18 -5 -20 -1 -20 35 0 35 -4 41 -28 50 -20 7 -28
17 -30 37 -3 37 -9 45 -37 45 -21 0 -24 5 -27 43 -2 28 -8 42 -18 43 -8 1 -21
2 -27 3 -8 0 -13 14 -13 32 0 29 -19 59 -37 59 -5 0 -13 14 -18 32 -7 21 -18
34 -33 38 -13 3 -23 8 -23 13 1 4 1 16 1 27 0 20 -7 20 -700 20 l-700 0 0
-350z m1220 165 c0 -45 0 -45 35 -45 l35 0 0 -119 0 -120 -32 -3 c-30 -3 -33
-6 -36 -40 l-3 -38 -145 0 -144 0 0 40 c0 39 -1 40 -34 40 -19 0 -36 4 -38 10
-1 5 -2 59 0 120 3 96 5 109 20 108 46 -4 52 1 52 42 l0 39 133 4 c72 1 138 4
145 5 8 1 12 -13 12 -43z m-690 -5 l0 -40 40 0 40 0 0 -125 0 -125 -40 0 -40
0 0 -40 0 -41 -112 3 -113 3 0 35 c0 32 -3 35 -32 38 l-33 3 0 125 0 124 30 0
c28 0 30 3 30 34 0 34 1 35 43 39 23 2 75 4 115 5 l72 2 0 -40z"/>
<path d="M1040 4265 c0 -31 -3 -35 -25 -35 -25 0 -26 -1 -23 -62 3 -59 5 -63
26 -61 19 2 22 -2 22 -32 l0 -35 100 0 100 0 0 28 c0 23 4 28 23 28 21 -1 22
4 25 72 l3 73 -26 -7 c-23 -6 -25 -4 -25 30 l0 36 -100 0 -100 0 0 -35z"/>
<path d="M410 4255 c0 -18 -5 -25 -20 -25 -18 0 -20 -7 -20 -61 0 -52 3 -62
20 -66 13 -3 20 -14 20 -29 0 -21 5 -24 34 -24 18 0 54 3 80 6 43 6 46 9 46
36 0 22 4 28 18 26 14 -3 17 5 18 50 1 44 -1 52 -17 52 -15 0 -17 5 -12 30 l6
30 -87 0 c-85 0 -86 0 -86 -25z"/>
<path d="M9500 4180 c0 -187 -1 -343 -2 -347 -2 -5 135 -9 305 -11 l307 -2 0
350 0 350 -305 0 -305 0 0 -340z m287 -30 c-2 -71 -6 -132 -9 -135 -3 -3 -18
5 -33 19 -16 15 -32 26 -36 26 -5 0 -6 7 -3 15 4 8 1 15 -6 15 -7 0 -21 11
-32 25 -11 14 -26 25 -34 25 -11 0 -14 8 -12 28 2 21 8 26 25 24 20 -3 51 31
45 51 -1 4 7 7 18 7 12 0 30 9 42 20 12 10 25 17 30 14 5 -3 7 -63 5 -134z"/>
<path d="M2280 4446 c0 -2 16 -6 35 -8 19 -2 35 0 35 4 0 4 -16 8 -35 8 -19 0
-35 -2 -35 -4z"/>
<path d="M2290 4426 c0 -2 9 -6 20 -9 11 -3 20 -1 20 4 0 5 -9 9 -20 9 -11 0
-20 -2 -20 -4z"/>
<path d="M2347 4412 c-3 -4 9 -7 26 -7 32 0 32 -1 38 -60 l6 -60 1 68 2 67
-34 0 c-19 0 -37 -3 -39 -8z"/>
<path d="M9100 4303 c19 -3 41 -9 47 -15 10 -8 13 -6 13 6 0 13 -10 16 -47 14
-41 -1 -43 -2 -13 -5z"/>
<path d="M8890 4233 c0 -10 4 -14 8 -8 4 6 11 13 16 18 5 4 2 7 -7 7 -10 0
-17 -8 -17 -17z"/>
<path d="M2250 4200 c0 -12 47 -12 75 0 15 6 8 9 -27 9 -27 1 -48 -3 -48 -9z"/>
<path d="M1861 3794 c0 -11 3 -14 6 -6 3 7 2 16 -1 19 -3 4 -6 -2 -5 -13z"/>
<path d="M8290 3806 c0 -2 7 -6 15 -10 8 -3 15 -1 15 4 0 6 -7 10 -15 10 -8 0
-15 -2 -15 -4z"/>
<path d="M1926 3793 c5 -5 12 -12 16 -18 4 -6 8 -2 8 8 0 9 -7 17 -17 17 -9 0
-12 -3 -7 -7z"/>
<path d="M8235 3789 c-11 -16 -1 -19 13 -3 7 8 8 14 3 14 -5 0 -13 -5 -16 -11z"/>
<path d="M8940 3515 l0 -265 260 0 260 0 0 265 0 265 -260 0 -260 0 0 -265z"/>
<path d="M1864 3685 c0 -49 1 -71 3 -48 2 23 2 64 0 90 -2 26 -3 8 -3 -42z"/>
<path d="M1985 3710 c3 -5 8 -10 11 -10 2 0 4 5 4 10 0 6 -5 10 -11 10 -5 0
-7 -4 -4 -10z"/>
<path d="M8180 3709 c0 -5 5 -7 10 -4 6 3 10 8 10 11 0 2 -4 4 -10 4 -5 0 -10
-5 -10 -11z"/>
<path d="M900 3605 l0 -45 -45 0 -45 0 0 -55 0 -55 45 0 45 0 0 -40 0 -40 85
0 85 0 0 40 0 40 40 0 c38 0 40 1 40 33 0 17 3 42 6 55 6 20 3 22 -40 22 l-46
0 0 45 0 45 -85 0 -85 0 0 -45z m130 -105 l0 -50 -50 0 -50 0 0 50 0 50 50 0
50 0 0 -50z"/>
<path d="M1440 3605 l0 -45 -40 0 -40 0 0 -55 0 -55 40 0 40 0 0 -42 0 -43 85
3 85 3 0 40 c0 39 0 39 40 39 l40 0 0 55 0 55 -40 0 -40 0 0 45 0 45 -85 0
-85 0 0 -45z m140 -101 l0 -55 -52 3 -53 3 -3 47 c-3 51 -1 52 81 57 26 1 27
0 27 -55z"/>
<path d="M8120 3605 c0 -8 2 -15 4 -15 2 0 6 7 10 15 3 8 1 15 -4 15 -6 0 -10
-7 -10 -15z"/>
<path d="M8085 3570 c3 -5 8 -10 11 -10 2 0 4 5 4 10 0 6 -5 10 -11 10 -5 0
-7 -4 -4 -10z"/>
<path d="M2086 3555 c4 -8 8 -15 10 -15 2 0 4 7 4 15 0 8 -4 15 -10 15 -5 0
-7 -7 -4 -15z"/>
<path d="M2110 3506 c0 -2 7 -6 15 -10 8 -3 15 -1 15 4 0 6 -7 10 -15 10 -8 0
-15 -2 -15 -4z"/>
<path d="M8020 3489 c0 -5 5 -7 10 -4 6 3 10 8 10 11 0 2 -4 4 -10 4 -5 0 -10
-5 -10 -11z"/>
<path d="M60 3130 l0 -90 900 0 900 0 0 74 c0 41 3 81 6 90 6 15 -78 16 -900
16 l-906 0 0 -90z"/>
<path d="M8320 3130 l0 -90 290 0 291 0 -3 88 -3 87 -287 3 -288 2 0 -90z"/>
<path d="M9500 3130 l0 -90 305 0 305 0 0 90 0 90 -305 0 -305 0 0 -90z"/>
<path d="M8940 3127 l0 -83 255 0 255 1 0 51 c0 28 3 66 6 83 l7 31 -262 0
-261 0 0 -83z"/>
<path d="M8818 2993 c12 -2 32 -2 45 0 12 2 2 4 -23 4 -25 0 -35 -2 -22 -4z"/>
<path d="M8928 2993 c23 -2 59 -2 80 0 20 2 1 4 -43 4 -44 0 -61 -2 -37 -4z"/>
<path d="M9410 2996 c0 -2 9 -6 20 -9 11 -3 20 -1 20 4 0 5 -9 9 -20 9 -11 0
-20 -2 -20 -4z"/>
<path d="M1988 2983 c7 -3 16 -2 19 1 4 3 -2 6 -13 5 -11 0 -14 -3 -6 -6z"/>
<path d="M703 2905 c0 -38 2 -53 4 -32 2 20 2 52 0 70 -2 17 -4 1 -4 -38z"/>
<path d="M9823 2885 c0 -22 2 -30 4 -17 2 12 2 30 0 40 -3 9 -5 -1 -4 -23z"/>
<path d="M9524 2680 c0 -69 1 -97 3 -62 2 34 2 90 0 125 -2 34 -3 6 -3 -63z"/>
<path d="M63 2200 c0 -25 2 -35 4 -22 2 12 2 32 0 45 -2 12 -4 2 -4 -23z"/>
<path d="M9596 1991 c-4 -7 -5 -15 -2 -18 9 -9 19 4 14 18 -4 11 -6 11 -12 0z"/>
<path d="M580 1904 c0 -8 -4 -13 -9 -9 -5 3 -12 1 -16 -5 -3 -5 3 -10 14 -10
14 0 21 6 21 20 0 11 -2 20 -5 20 -3 0 -5 -7 -5 -16z"/>
<path d="M323 1903 c15 -2 39 -2 55 0 15 2 2 4 -28 4 -30 0 -43 -2 -27 -4z"/>
<path d="M8498 1903 c12 -2 32 -2 45 0 12 2 2 4 -23 4 -25 0 -35 -2 -22 -4z"/>
<path d="M8918 1903 c12 -2 30 -2 40 0 9 3 -1 5 -23 4 -22 0 -30 -2 -17 -4z"/>
<path d="M977 1873 c-28 -4 -28 -4 -25 -76 3 -72 3 -72 33 -75 l30 -3 -3 -114
-3 -115 95 0 96 0 0 90 0 90 -40 0 -40 0 0 70 0 70 -39 0 c-37 0 -40 2 -43 32
-3 34 -11 39 -61 31z"/>
<path d="M9150 1840 c0 -28 -3 -30 -35 -30 -26 0 -35 4 -35 17 0 9 -3 13 -7 9
-10 -10 -10 -12 -12 -96 l-1 -70 -40 0 -40 0 0 -92 0 -91 122 6 c67 4 124 11
127 16 3 5 5 29 5 53 -2 81 -2 80 -23 68 -34 -18 -41 -12 -41 40 l0 50 35 0
35 0 0 75 0 75 -45 0 c-43 0 -45 -1 -45 -30z"/>
<path d="M8956 1842 c-3 -6 -1 -14 5 -17 15 -10 25 3 12 16 -7 7 -13 7 -17 1z"/>
<path d="M1200 1830 c0 -5 5 -10 10 -10 6 0 10 5 10 10 0 6 -4 10 -10 10 -5 0
-10 -4 -10 -10z"/>
<path d="M813 1403 c9 -2 25 -2 35 0 9 3 1 5 -18 5 -19 0 -27 -2 -17 -5z"/>
<path d="M8770 590 c-19 -4 15 -5 75 -2 61 3 112 6 114 8 8 7 -153 2 -189 -6z"/>
<path d="M9938 593 c12 -2 32 -2 45 0 12 2 2 4 -23 4 -25 0 -35 -2 -22 -4z"/>
<path d="M60 273 l0 -83 5024 0 5023 0 -2 80 -3 80 -5021 3 -5021 2 0 -82z"/>
<path d="M60 45 l0 -45 5025 0 5025 0 0 45 0 45 -5025 0 -5025 0 0 -45z"/>
</g>
</svg>
